<svg width="2596" height="738" viewBox="0 0 2596 738" fill="none" xmlns="http://www.w3.org/2000/svg">
<g clip-path="url(#clip0_52_4)">
<path fill-rule="evenodd" clip-rule="evenodd" d="M2416.32 279.737C2416.1 280.059 2415.89 280.381 2415.66 280.696C2415.88 280.379 2416.1 280.055 2416.32 279.737L2416.32 279.737ZM2057.46 164.389C2057.06 186.838 2060.45 208.471 2067.02 228.691C2067.09 228.916 2067.17 229.138 2067.25 229.363C2067.58 230.388 2067.92 231.415 2068.27 232.434C2069.98 237.441 2071.89 242.377 2074 247.23C2079.1 258.974 2136.17 143.889 2092.97 281.331C2049.77 418.773 2153.63 230.913 2162.63 239.624C2171.65 248.322 2136.74 327.219 2147.41 334.174C2158.51 341.367 2169.45 346.768 2179.78 350.96C2181.07 351.482 2182.33 352.039 2183.6 352.519L2187.4 353.882C2189.91 354.769 2192.33 355.713 2194.76 356.404L2198.78 357.643C2200.12 358.04 2201.44 358.506 2202.79 358.817L2210.81 360.855C2221.52 363.268 2232.09 364.72 2242.33 365.444C2245.02 365.572 2247.55 365.691 2249.96 365.807C2251.16 365.892 2252.34 365.835 2253.5 365.849L2256.92 365.843C2261.41 365.938 2265.69 365.58 2270.22 365.405C2271.34 365.378 2272.45 365.228 2273.56 365.131L2276.92 364.804C2279.15 364.583 2281.4 364.407 2283.63 364.028L2290.36 363.03C2292.6 362.648 2294.83 362.151 2297.07 361.713L2300.4 361.038C2301.51 360.786 2302.62 360.48 2303.73 360.2C2305.96 359.62 2308.21 359.058 2310.43 358.454L2316.93 356.402C2318 356.051 2319.06 355.759 2320.08 355.367L2323.1 354.237C2338.84 348.364 2349.87 342.113 2358.03 337.143L2360.92 335.365C2361.86 334.795 2362.76 334.242 2363.61 333.647L2368.4 330.398L2370.57 328.931C2371.24 328.428 2371.89 327.944 2372.52 327.478C2373.77 326.547 2265.82 259.421 2266.89 258.628C2275.6 252.001 2393.37 310.636 2401.55 301.798L2404.59 298.446C2405.09 297.877 2405.63 297.334 2406.1 296.74L2407.56 294.971L2410.13 291.831C2410.98 290.784 2411.86 289.777 2412.62 288.693L2417.22 282.498C2418.68 280.423 2420.03 278.324 2421.41 276.284C2426.75 268.009 2431.34 259.935 2434.89 252.104L2436.26 249.217C2436.73 248.274 2437.08 247.289 2437.49 246.341L2439.81 240.733C2439.99 240.274 2440.19 239.825 2440.36 239.364L2440.85 237.989L2441.81 235.283C2442.43 233.497 2443.07 231.763 2443.64 230.053C2444.65 226.6 2445.68 223.342 2446.52 220.239L2448.66 211.441C2449.7 205.907 2450.67 201.194 2451.08 197.295L2451.74 192.146C2451.9 190.654 2451.95 189.383 2452.02 188.36C2452.15 186.308 2452.18 185.22 2452.1 185.168C2452.03 185.115 2451.86 186.098 2451.59 188.038L2451.12 191.654L2450.28 196.62L2449.79 199.598L2449.52 201.209C2449.42 201.757 2449.29 202.313 2449.17 202.885L2447.58 210.352C2446.94 213.028 2446.14 215.874 2445.36 218.92C2444.99 220.45 2444.47 221.988 2443.97 223.579C2443.47 225.171 2442.96 226.807 2442.43 228.487L2442.03 229.756L2441.57 231.021L2440.62 233.597L2438.65 238.931L2436.31 244.401L2435.11 247.221C2434.71 248.174 2434.22 249.096 2433.77 250.048L2430.96 255.846C2429.96 257.793 2428.85 259.728 2427.78 261.723L2426.13 264.732L2424.32 267.711L2422.47 270.735C2421.84 271.744 2421.26 272.794 2420.56 273.782L2418.95 276.151C2438.84 246.009 2489.14 160.038 2451.37 171.265C2298.68 216.657 2366.63 -27.1919 2257.85 -29.0906C2149.08 -30.9893 2059.35 55.635 2057.46 164.389Z" fill="url(#paint0_linear_52_4)"/>
<path fill-rule="evenodd" clip-rule="evenodd" d="M2477.54 18.214L2477.19 23.081C2477.11 24.707 2476.85 26.316 2476.67 27.931C2476.47 29.546 2476.3 31.165 2475.98 32.763C2475.7 34.364 2475.44 35.971 2475.13 37.569L2474.05 42.33L2473.78 43.52L2473.45 44.696L2472.79 47.047L2472.13 49.398C2471.9 50.178 2471.62 50.944 2471.37 51.718L2470.59 54.034C2470.33 54.804 2470.09 55.584 2469.78 56.337L2468.01 60.888C2467.87 61.271 2467.71 61.644 2467.54 62.014L2467.04 63.129L2466.05 65.36C2465.71 66.099 2465.41 66.858 2465.04 67.58L2463.94 69.761C2462.53 72.699 2460.86 75.502 2459.24 78.329L2456.62 82.459C2456.2 83.156 2455.72 83.819 2455.25 84.484L2453.84 86.483C2453.36 87.147 2452.9 87.82 2452.42 88.476L2450.91 90.406L2449.4 92.334C2449.15 92.654 2448.9 92.981 2448.64 93.295L2447.84 94.223L2444.64 97.932L2324.76 69.422C2320.18 74.077 2509.52 93.45 2504.31 97.408C2499.06 101.31 2415.81 121.879 2410.07 125.012L2405.71 127.267C2404.24 127.987 2402.73 128.637 2401.25 129.326C2399.77 130.036 2398.24 130.616 2396.72 131.223C2395.2 131.823 2393.69 132.461 2392.12 132.957C2385.96 135.202 2379.55 136.757 2373.1 137.934L2370.67 138.349C2369.86 138.482 2369.06 138.645 2368.24 138.724L2363.35 139.314C2362.54 139.433 2361.72 139.464 2360.9 139.53L2358.45 139.709L2356 139.889L2353.55 139.955L2351.09 140.026C2350.27 140.044 2349.46 140.099 2348.64 140.066L2343.74 139.996C2342.92 140.004 2342.1 139.946 2341.29 139.894L2338.84 139.747L2336.39 139.601C2335.58 139.529 2334.77 139.427 2333.95 139.341C2327.44 138.737 2320.98 137.499 2314.64 135.763L2312.27 135.091L2311.09 134.751C2310.7 134.631 2310.31 134.49 2309.92 134.359L2305.26 132.749C2302.21 131.529 2299.13 130.351 2296.18 128.902L2293.95 127.86C2293.57 127.691 2293.21 127.508 2292.85 127.31L2291.76 126.737L2289.58 125.591L2288.49 125.019C2288.12 124.835 2287.76 124.636 2287.41 124.424L2283.16 121.943C2282.44 121.547 2281.77 121.076 2281.08 120.64L2279.01 119.313C2278.32 118.864 2277.62 118.448 2276.95 117.973L2274.95 116.553C2273.62 115.598 2272.25 114.689 2270.98 113.653C2269.7 112.638 2268.4 111.646 2267.13 110.613L2263.41 107.405C2258.55 103.024 2254 98.3024 2249.8 93.275C2245.65 88.1978 2241.86 82.84 2238.45 77.24L2235.97 72.99L2233.71 68.625L2233.14 67.533C2232.95 67.168 2232.8 66.789 2232.62 66.418L2231.6 64.18L2230.59 61.94C2230.26 61.19 2229.98 60.419 2229.67 59.659L2228.77 57.371C2228.48 56.607 2228.15 55.854 2227.91 55.071L2226.33 50.414L2226.13 49.832L2225.96 49.242L2225.62 48.059L2224.95 45.694C2224.73 44.904 2224.48 44.122 2224.3 43.324L2223.74 40.928L2223.19 38.533C2223.1 38.133 2222.99 37.736 2222.91 37.333L2222.7 36.123L2221.83 31.282C2221.43 28.03 2220.93 24.787 2220.76 21.512C2220.44 18.251 2220.44 14.97 2220.34 11.692C2220.36 10.053 2220.42 8.413 2220.45 6.772L2220.48 5.542C2220.48 5.132 2220.5 4.722 2220.54 4.314L2220.72 1.859L2220.9 -0.597C2220.94 -1.005 2220.95 -1.416 2221 -1.823L2221.15 -3.045L2221.77 -7.929C2222.35 -11.157 2222.85 -14.403 2223.67 -17.577C2224.05 -19.17 2224.39 -20.77 2224.88 -22.331C2225.34 -23.899 2225.79 -25.473 2226.27 -27.031L2227.89 -31.654L2228.3 -32.808L2228.76 -33.941L2229.69 -36.207C2232.2 -42.224 2235.08 -48.097 2238.48 -53.676C2239.27 -55.105 2240.2 -56.455 2241.08 -57.833L2242.41 -59.894C2242.84 -60.585 2243.35 -61.233 2243.81 -61.904L2245.24 -63.904C2245.72 -64.565 2246.17 -65.252 2246.69 -65.884L2249.73 -69.746C2253.9 -74.7948 2258.44 -79.5283 2263.31 -83.908C2267.24 -87.3672 2271.4 -90.5685 2275.74 -93.492L2274.04 -92.294L2273.04 -91.588L2272.54 -91.235L2272.05 -90.859L2270.13 -89.349C2268.84 -88.339 2267.55 -87.349 2266.34 -86.25C2265.12 -85.168 2263.87 -84.118 2262.68 -83.005L2259.18 -79.597C2258.58 -79.041 2258.04 -78.427 2257.48 -77.835L2255.82 -76.048C2255.27 -75.447 2254.69 -74.87 2254.17 -74.248L2252.59 -72.386C2251.55 -71.138 2250.46 -69.928 2249.49 -68.618C2248.5 -67.326 2247.49 -66.053 2246.52 -64.751L2243.7 -60.767C2240.04 -55.389 2236.7 -49.784 2233.77 -43.958C2230.91 -38.098 2228.48 -32.028 2226.55 -25.802L2225.23 -21.1L2225.07 -20.511L2224.93 -19.916L2224.66 -18.725L2224.13 -16.344C2223.96 -15.548 2223.76 -14.759 2223.61 -13.959L2223.2 -11.553L2222.79 -9.149L2222.59 -7.947L2222.45 -6.736L2221.87 -1.894C2221.73 -0.274997 2221.65 1.349 2221.53 2.969C2221.48 3.779 2221.39 4.588 2221.38 5.401L2221.33 7.838L2221.28 10.275L2221.25 11.493L2221.28 12.712L2221.31 13.796C2221.32 14.47 2221.34 15.144 2221.36 15.816L2221.41 17.623C2221.46 18.709 2221.54 19.793 2221.63 20.879L2221.69 21.695C2221.71 21.972 2221.73 22.249 2221.75 22.525C2221.82 23.342 2221.85 24.162 2221.95 24.975L2222.25 27.415L2222.55 29.855C2222.6 30.262 2222.64 30.67 2222.7 31.075L2222.91 32.287L2223.76 37.134C2224.1 38.736 2224.48 40.333 2224.84 41.933C2225.17 43.541 2225.66 45.107 2226.09 46.688L2226.77 49.054C2226.87 49.451 2227 49.84 2227.14 50.227L2227.53 51.391C2229.53 57.638 2232.16 63.668 2235.16 69.485C2235.95 71.074 2236.82 72.622 2237.7 74.156C2242.26 82.2292 2247.68 89.7841 2253.87 96.688C2254.16 97.018 2254.44 97.351 2254.73 97.678L2258.1 101.264C2262.7 105.953 2302.3 80.548 2307.56 84.484C2312.84 88.381 2283.79 121.606 2289.59 124.67L2293.98 126.886L2298.48 128.894C2298.85 129.059 2299.23 129.233 2299.6 129.392L2300.75 129.839L2303.04 130.732L2305.34 131.627L2307.56 132.371C2308.21 132.598 2308.87 132.817 2309.54 133.034L2310 133.189L2311.17 133.579C2311.52 133.689 2311.88 133.783 2312.24 133.883C2324.29 137.52 2336.82 139.364 2349.41 139.355C2420.17 139.355 2477.54 82.118 2477.54 11.513C2477.54 -19.762 2466.27 -48.409 2447.58 -70.625C2445.28 -73.4316 2442.86 -76.1397 2440.32 -78.742C2435.8 -83.2856 2431 -87.5294 2425.93 -91.446C2420.87 -95.296 2410.72 -47.174 2409.82 -101.873L2405.55 -104.116C2404.11 -104.826 2402.64 -105.481 2401.19 -106.167L2400.09 -106.677L2399.55 -106.931L2398.99 -107.159L2396.76 -108.071C2395.28 -108.669 2393.81 -109.325 2392.29 -109.828L2387.66 -111.482L2382.98 -112.919L2381.82 -113.279C2381.43 -113.392 2381.03 -113.483 2380.64 -113.587L2378.27 -114.191L2375.91 -114.795C2375.12 -115.001 2374.32 -115.131 2373.53 -115.303C2367.18 -116.727 2360.68 -117.492 2354.05 -117.837C2352.38 -117.89 2350.72 -117.976 2349.05 -118L2344.05 -117.93L2342.8 -117.911L2341.55 -117.834L2339.05 -117.672L2336.55 -117.508C2335.72 -117.454 2334.89 -117.328 2334.06 -117.241C2327.41 -116.591 2320.82 -115.277 2314.36 -113.547L2311.93 -112.876L2310.72 -112.538L2309.52 -112.14L2304.74 -110.533L2300.04 -108.684L2298.86 -108.219C2298.47 -108.056 2298.09 -107.874 2297.71 -107.703L2295.4 -106.658L2293.1 -105.612C2292.34 -105.238 2291.6 -104.844 2290.85 -104.462L2288.6 -103.308L2287.47 -102.731C2287.1 -102.531 2286.74 -102.314 2286.37 -102.107C2284.91 -101.269 2283.45 -100.432 2281.99 -99.597L2277.74 -96.9C2272.13 -93.2193 2266.8 -89.1401 2261.77 -84.694C2256.8 -80.19 2252.16 -75.3266 2247.89 -70.143L2244.83 -66.27L2241.95 -62.25L2241.23 -61.242L2240.56 -60.202L2239.22 -58.122L2237.89 -56.041L2236.65 -53.899L2235.41 -51.755L2234.79 -50.684C2234.59 -50.325 2234.41 -49.952 2234.22 -49.587L2231.96 -45.188C2230.59 -42.193 2229.16 -39.221 2227.99 -36.14L2227.07 -33.85L2226.84 -33.277L2226.64 -32.697L2226.23 -31.533C2225.69 -29.981 2225.12 -28.441 2224.61 -26.884C2224.13 -25.314 2223.66 -23.744 2223.18 -22.175L2222.83 -20.997L2222.53 -19.805L2221.93 -17.419L2221.34 -15.032C2221.15 -14.232 2221.01 -13.424 2220.85 -12.62L2220.37 -10.203L2220.14 -8.993L2220.02 -8.388L2219.93 -7.778L2219.25 -2.888C2219.2 -2.48 2219.13 -2.072 2219.09 -1.662L2218.99 -0.43L2218.79 2.039L2218.59 4.512C2218.54 5.337 2218.54 6.165 2218.51 6.992C2218.48 8.646 2218.41 10.302 2218.42 11.957L2218.56 16.925L2218.6 18.167L2218.69 19.406L2218.89 21.884L2219.1 24.361C2219.15 25.188 2219.3 26.005 2219.4 26.828C2219.62 28.47 2219.81 30.116 2220.06 31.752L2220.95 36.637L2221.17 37.858L2221.45 39.067L2222 41.484L2222.56 43.9C2222.76 44.702 2223 45.493 2223.22 46.29L2223.89 48.676C2224.13 49.469 2224.32 50.273 2224.61 51.051L2226.2 55.749C2226.44 56.539 2226.78 57.296 2227.07 58.068L2227.99 60.375C2228.3 61.141 2228.58 61.919 2228.91 62.675L2229.94 64.934L2230.96 67.193C2231.14 67.568 2231.3 67.95 2231.48 68.318L2232.05 69.422L2234.32 73.835L2236.79 78.135C2240.19 83.805 2243.92 89.283 2248.07 94.448C2252.26 99.577 2256.81 104.414 2261.73 108.866C2271.64 117.686 2282.88 125.018 2294.98 130.459L2297.24 131.473L2298.38 131.978L2299.53 132.428L2304.16 134.208C2307.3 135.24 2310.42 136.333 2313.63 137.13C2315.22 137.557 2316.81 138.02 2318.43 138.338C2320.04 138.685 2321.65 139.052 2323.27 139.385L2328.15 140.211L2329.37 140.421C2329.78 140.482 2330.19 140.523 2330.6 140.575L2333.06 140.877L2335.52 141.184C2335.93 141.244 2336.34 141.276 2336.76 141.304L2337.99 141.402C2339.65 141.526 2341.3 141.678 2342.95 141.787L2347.94 141.953L2349.18 141.995C2349.6 142.011 2350.01 141.989 2350.43 141.987L2352.92 141.949C2356.25 141.969 2359.57 141.653 2362.89 141.431C2366.19 141.021 2369.5 140.684 2372.74 140.016C2380.17 138.641 2387.41 136.567 2394.39 133.904C2401.37 131.199 2408.08 127.902 2414.55 124.108C2427.49 116.505 2439.02 106.746 2448.53 95.248C2458.05 83.802 2465.93 70.631 2470.92 56.633C2473.4 49.663 2475.24 42.521 2476.47 35.292L2476.91 32.576L2477.12 31.219L2477.28 29.853C2477.47 28.03 2477.69 26.21 2477.86 24.386L2478.18 18.895C2478.26 17.981 2478.22 17.061 2478.24 16.144L2478.27 13.39C2478.29 11.004 2477.71 10.794 2477.65 13.338L2477.54 18.214Z" fill="url(#paint1_linear_52_4)"/>
<path fill-rule="evenodd" clip-rule="evenodd" d="M1916.2 479.93L1945.88 311.604C1971.49 327.322 2001.58 348.073 2035.83 374.84C2135.11 452.424 1985.43 286.36 1957.46 245.963L1958.97 237.407C1962.48 237.472 1966 237.635 1969.52 237.888C1970.59 237.959 1971.67 238.054 1972.75 238.143C1972.98 238.164 1973.22 238.178 1973.45 238.2C1994.63 240.053 2015.87 245.386 2036.38 254.519C2135.75 298.76 2180.43 415.193 2136.18 514.582C2131.74 524.557 2125.75 531.94 2118.55 537.314C2116.55 531.919 2114.21 526.655 2111.55 521.555L2109.18 517.218L2106.61 512.997L2105.96 511.943L2105.26 510.921L2103.87 508.876L2102.48 506.832L2100.99 504.854L2098.75 501.893C2098.5 501.566 2098.23 501.256 2097.97 500.937L2094.8 497.138C2092.58 494.704 2090.41 492.225 2088.02 489.951L2086.28 488.207L2085.84 487.772L2085.39 487.357L2084.47 486.527C2083.25 485.426 2082.06 484.299 2080.83 483.215L2077.05 480.066L2076.1 479.279L2075.12 478.539L2073.16 477.056L2071.2 475.574C2070.53 475.092 2069.84 474.647 2069.17 474.18L2067.13 472.8L2066.11 472.11L2065.59 471.766L2065.07 471.447L2060.83 468.907C2060.48 468.699 2060.13 468.478 2059.77 468.282L2058.67 467.706L2056.48 466.556L2054.28 465.412C2053.54 465.043 2052.78 464.718 2052.03 464.37C2050.52 463.693 2049.02 462.982 2047.49 462.342L2042.87 460.533L2041.71 460.082L2040.53 459.686L2038.17 458.902L2035.81 458.121C2035.03 457.851 2034.22 457.664 2033.42 457.433C2031.82 456.998 2030.23 456.53 2028.63 456.121L2023.79 455.027L2022.58 454.753L2021.35 454.537L2018.91 454.105L2016.47 453.67C2015.66 453.541 2014.83 453.455 2014.01 453.346L2011.55 453.036C2010.73 452.942 2009.92 452.807 2009.09 452.764L2004.14 452.392C2003.32 452.312 2002.49 452.324 2001.66 452.294L1999.19 452.233C1998.36 452.219 1997.53 452.175 1996.71 452.187L1994.23 452.247L1991.75 452.307C1991.33 452.322 1990.92 452.319 1990.51 452.346L1989.27 452.436L1984.32 452.799L1979.4 453.395C1972.85 454.313 1966.35 455.608 1959.97 457.409C1953.61 459.26 1947.38 461.562 1941.36 464.348C1932.42 468.578 1923.98 473.805 1916.2 479.93ZM1915.45 484.225L1915.67 482.97L1916.04 482.664C1916.35 482.4 1916.68 482.144 1917.01 481.906L1920.95 478.964C1921.6 478.457 1922.29 478.022 1922.97 477.554L1925 476.169C1925.68 475.713 1926.34 475.225 1927.03 474.796L1929.12 473.507C1930.52 472.657 1931.89 471.756 1933.34 470.994C1934.78 470.207 1936.2 469.397 1937.65 468.633L1942.05 466.465C1947.99 463.697 1954.11 461.356 1960.38 459.459C1966.67 457.624 1973.08 456.226 1979.57 455.275L1984.45 454.656L1989.35 454.274L1990.58 454.181C1990.99 454.151 1991.4 454.153 1991.81 454.139L1994.27 454.075L1996.73 454.015C1997.55 454.005 1998.37 454.049 1999.19 454.064L2001.64 454.129C2002.46 454.157 2003.28 454.151 2004.1 454.231L2009 454.598L2009.61 454.644L2010.22 454.719L2011.44 454.87L2013.88 455.175C2014.7 455.285 2015.51 455.358 2016.32 455.498L2018.74 455.922L2021.17 456.347C2021.57 456.421 2021.97 456.483 2022.38 456.566L2023.58 456.84L2028.37 457.935C2031.52 458.832 2034.7 459.639 2037.78 460.762C2040.91 461.749 2043.93 463.028 2046.98 464.218C2048.48 464.878 2049.97 465.568 2051.47 466.24L2052.59 466.747C2052.97 466.912 2053.34 467.086 2053.7 467.281L2055.89 468.407L2058.08 469.534C2058.44 469.725 2058.81 469.903 2059.17 470.105L2060.23 470.723L2064.49 473.2C2067.23 474.994 2070.02 476.721 2072.63 478.714C2073.95 479.686 2075.28 480.627 2076.53 481.69C2077.79 482.73 2079.07 483.751 2080.31 484.809L2083.93 488.105L2084.84 488.931L2085.7 489.8L2087.42 491.536C2091.98 496.2 2096.26 501.142 2100.07 506.455C2101.07 507.743 2101.96 509.121 2102.88 510.469L2104.26 512.499C2104.72 513.172 2105.12 513.888 2105.56 514.581L2106.84 516.675C2107.26 517.378 2107.72 518.058 2108.1 518.785L2110.46 523.093C2113.02 528.016 2115.27 533.093 2117.19 538.295L2116.94 538.467L2115.84 535.633C2115.56 534.867 2115.21 534.133 2114.88 533.387L2113.89 531.156C2113.55 530.416 2113.24 529.661 2112.88 528.935L2111.78 526.754C2111.04 525.306 2110.35 523.832 2109.52 522.429C2108.72 521.015 2107.94 519.584 2107.12 518.179L2104.56 514.029C2101.04 508.558 2097.18 503.294 2092.97 498.319C2088.69 493.401 2084.05 488.79 2079.07 484.585L2075.26 481.529L2074.78 481.148L2074.29 480.791L2073.3 480.078L2071.31 478.656C2070.65 478.188 2070 477.694 2069.32 477.25L2067.26 475.933L2065.21 474.616L2064.18 473.961L2063.12 473.355L2058.89 470.937C2057.46 470.173 2056 469.459 2054.55 468.716C2053.82 468.357 2053.11 467.958 2052.37 467.631L2050.15 466.635L2047.92 465.634L2046.81 465.134L2045.68 464.686L2044.67 464.289C2044.04 464.036 2043.42 463.788 2042.79 463.546L2041.11 462.882C2040.09 462.504 2039.06 462.158 2038.03 461.811L2037.25 461.547C2036.99 461.458 2036.72 461.369 2036.46 461.278C2035.68 461.022 2034.92 460.731 2034.13 460.503L2031.77 459.827L2029.4 459.148C2029.01 459.038 2028.62 458.918 2028.22 458.813L2027.02 458.534L2022.23 457.418C2020.62 457.11 2019 456.831 2017.39 456.538C2015.78 456.212 2014.15 456.054 2012.52 455.839L2010.08 455.531C2009.68 455.476 2009.27 455.436 2008.86 455.413L2007.63 455.322C2001.1 454.723 1994.52 454.788 1987.99 455.28C1986.22 455.385 1984.46 455.575 1982.7 455.792C1973.49 456.834 1964.42 458.872 1955.64 461.871C1955.23 462.004 1954.81 462.136 1954.4 462.273L1949.78 463.98C1943.67 466.38 1951.58 512.755 1945.9 516.057C1940.25 519.401 1921.02 479.67 1915.93 483.815L1915.45 484.225ZM1951.73 539.56C1951.39 539.571 1951.05 539.585 1950.72 539.6C1952.03 537.951 1952.84 537.278 1953.05 537.774L1951.73 539.56Z" fill="url(#paint2_linear_52_4)"/>
<path d="M2193.87 364.867C2193.66 365.193 2193.45 365.518 2193.23 365.837C2193.44 365.516 2193.65 365.189 2193.87 364.867H2193.87ZM1645.3 198.5C1618.6 220.05 1651.03 265.446 1661.55 296.016C1661.67 296.356 1661.79 296.691 1661.91 297.031C1662.45 298.581 1662.98 300.134 1663.55 301.673C1666.28 309.242 1669.32 316.696 1672.65 324.018C1680.72 341.738 1764.42 165.242 1702.39 375.365C1640.37 585.488 1793.26 297.096 1807.18 310.1C1821.13 323.088 1770.14 443.974 1786.55 454.266C1803.61 464.908 1820.38 472.83 1836.2 478.929C1838.18 479.69 1840.11 480.503 1842.06 481.198L1847.87 483.17C1851.7 484.452 1855.41 485.824 1859.12 486.81L1865.27 488.587C1867.32 489.154 1869.33 489.828 1871.4 490.265L1883.63 493.151C1899.98 496.536 1916.09 498.463 1931.67 499.292L1943.27 499.64C1945.11 499.739 1946.9 499.621 1948.66 499.61L1953.86 499.512C1960.7 499.537 1967.18 498.88 1974.07 498.492C1975.77 498.422 1977.45 498.165 1979.15 497.986L1984.23 497.402C1987.63 497.007 1991.05 496.679 1994.43 496.044L2004.63 494.346C2008.02 493.706 2011.39 492.893 2014.79 492.167L2019.83 491.053C2021.51 490.638 2023.19 490.145 2024.88 489.689C2028.25 488.749 2031.65 487.835 2035.01 486.856L2044.84 483.565C2046.45 483.003 2048.06 482.531 2049.6 481.908L2054.15 480.11C2077.94 470.761 2094.53 460.965 2106.81 453.19L2111.15 450.41C2112.56 449.519 2113.93 448.654 2115.19 447.727L2122.4 442.659L2125.65 440.371C2126.66 439.589 2127.64 438.837 2128.58 438.111C2130.46 436.661 1964.57 337.464 1966.18 336.228C1979.24 325.922 2159.83 411.95 2172.02 398.293L2176.56 393.118C2177.31 392.239 2178.1 391.399 2178.81 390.483L2180.97 387.756L2184.8 382.912C2186.06 381.298 2187.37 379.742 2188.51 378.074L2195.33 368.533C2197.49 365.341 2199.5 362.111 2201.55 358.974C2209.44 346.25 2216.2 333.852 2221.39 321.851L2223.39 317.427C2224.08 315.979 2224.59 314.472 2225.19 313.02L2228.56 304.431C2228.83 303.729 2229.12 303.039 2229.37 302.336L2230.07 300.231L2231.46 296.091C2232.36 293.359 2233.28 290.705 2234.1 288.091C2235.56 282.813 2237.02 277.833 2238.23 273.093L2241.24 259.659C2242.68 251.217 2244.02 244.024 2244.54 238.086L2245.41 230.238C2245.62 227.966 2245.66 226.032 2245.74 224.474C2245.88 221.352 2245.89 219.698 2245.78 219.62C2245.67 219.541 2245.43 221.04 2245.08 223.996L2244.46 229.508L2243.31 237.081L2242.64 241.622L2242.28 244.077C2242.14 244.913 2241.96 245.763 2241.79 246.635C2241.11 250.122 2240.37 253.925 2239.57 258.032C2238.68 262.118 2237.53 266.465 2236.42 271.117C2235.91 273.454 2235.15 275.805 2234.44 278.239L2232.22 285.741C2232.03 286.384 2231.84 287.031 2231.65 287.682C2231.43 288.323 2231.21 288.969 2230.98 289.618L2229.61 293.559C2228.68 296.217 2227.73 298.938 2226.75 301.722L2223.35 310.1L2221.59 314.421C2221.02 315.881 2220.29 317.295 2219.63 318.756L2215.51 327.644C2214.05 330.631 2212.41 333.603 2210.83 336.665L2208.41 341.284C2207.52 342.809 2206.62 344.334 2205.73 345.86C2204.83 347.397 2203.92 348.946 2203.01 350.508C2202.07 352.059 2201.22 353.672 2200.18 355.191L2197.8 358.838C2227.24 312.479 2244.3 257.484 2244.3 198.5C2244.3 33.091 2110.21 -101 1944.8 -101C1779.39 -101 1871.4 16 1645.3 198.5Z" fill="url(#paint3_linear_52_4)"/>
<mask id="mask0_52_4" style="mask-type:luminance" maskUnits="userSpaceOnUse" x="1635" y="-101" width="611" height="601">
<path d="M2193.87 364.867C2193.66 365.193 2193.45 365.518 2193.23 365.837C2193.44 365.516 2193.65 365.189 2193.87 364.867H2193.87ZM1645.3 198.5C1618.6 220.05 1651.03 265.446 1661.55 296.016C1661.67 296.356 1661.79 296.691 1661.91 297.031C1662.45 298.581 1662.98 300.134 1663.55 301.673C1666.28 309.242 1669.32 316.696 1672.65 324.018C1680.72 341.738 1764.42 165.242 1702.39 375.365C1640.37 585.488 1793.26 297.096 1807.18 310.1C1821.13 323.088 1770.14 443.974 1786.55 454.266C1803.61 464.908 1820.38 472.83 1836.2 478.929C1838.18 479.69 1840.11 480.503 1842.06 481.198L1847.87 483.17C1851.7 484.452 1855.41 485.824 1859.12 486.81L1865.27 488.587C1867.32 489.154 1869.33 489.828 1871.4 490.265L1883.63 493.151C1899.98 496.536 1916.09 498.463 1931.67 499.292L1943.27 499.64C1945.11 499.739 1946.9 499.621 1948.66 499.61L1953.86 499.512C1960.7 499.537 1967.18 498.88 1974.07 498.492C1975.77 498.422 1977.45 498.165 1979.15 497.986L1984.23 497.402C1987.63 497.007 1991.05 496.679 1994.43 496.044L2004.63 494.346C2008.02 493.706 2011.39 492.893 2014.79 492.167L2019.83 491.053C2021.51 490.638 2023.19 490.145 2024.88 489.689C2028.25 488.749 2031.65 487.835 2035.01 486.856L2044.84 483.565C2046.45 483.003 2048.06 482.531 2049.6 481.908L2054.15 480.11C2077.94 470.761 2094.53 460.965 2106.81 453.19L2111.15 450.41C2112.56 449.519 2113.93 448.654 2115.19 447.727L2122.4 442.659L2125.65 440.371C2126.66 439.589 2127.64 438.837 2128.58 438.111C2130.46 436.661 1964.57 337.464 1966.18 336.228C1979.24 325.922 2159.83 411.95 2172.02 398.293L2176.56 393.118C2177.31 392.239 2178.1 391.399 2178.81 390.483L2180.97 387.756L2184.8 382.912C2186.06 381.298 2187.37 379.742 2188.51 378.074L2195.33 368.533C2197.49 365.341 2199.5 362.111 2201.55 358.974C2209.44 346.25 2216.2 333.852 2221.39 321.851L2223.39 317.427C2224.08 315.979 2224.59 314.472 2225.19 313.02L2228.56 304.431C2228.83 303.729 2229.12 303.039 2229.37 302.336L2230.07 300.231L2231.46 296.091C2232.36 293.359 2233.28 290.705 2234.1 288.091C2235.56 282.813 2237.02 277.833 2238.23 273.093L2241.24 259.659C2242.68 251.217 2244.02 244.024 2244.54 238.086L2245.41 230.238C2245.62 227.966 2245.66 226.032 2245.74 224.474C2245.88 221.352 2245.89 219.698 2245.78 219.62C2245.67 219.541 2245.43 221.04 2245.08 223.996L2244.46 229.508L2243.31 237.081L2242.64 241.622L2242.28 244.077C2242.14 244.913 2241.96 245.763 2241.79 246.635C2241.11 250.122 2240.37 253.925 2239.57 258.032C2238.68 262.118 2237.53 266.465 2236.42 271.117C2235.91 273.454 2235.15 275.805 2234.44 278.239L2232.22 285.741C2232.03 286.384 2231.84 287.031 2231.65 287.682C2231.43 288.323 2231.21 288.969 2230.98 289.618L2229.61 293.559C2228.68 296.217 2227.73 298.938 2226.75 301.722L2223.35 310.1L2221.59 314.421C2221.02 315.881 2220.29 317.295 2219.63 318.756L2215.51 327.644C2214.05 330.631 2212.41 333.603 2210.83 336.665L2208.41 341.284C2207.52 342.809 2206.62 344.334 2205.73 345.86C2204.83 347.397 2203.92 348.946 2203.01 350.508C2202.07 352.059 2201.22 353.672 2200.18 355.191L2197.8 358.838C2227.24 312.479 2244.3 257.484 2244.3 198.5C2244.3 33.091 2110.21 -101 1944.8 -101C1779.39 -101 1871.4 16 1645.3 198.5Z" fill="white"/>
</mask>
<g mask="url(#mask0_52_4)">
<path fill-rule="evenodd" clip-rule="evenodd" d="M1727.13 401.145C1727.14 400.758 1727.13 400.371 1727.14 399.984C1727.13 400.371 1727.13 400.759 1727.13 401.145ZM2089.14 296.101C2148.38 387.324 2122.44 509.309 2031.2 568.562C1939.96 627.816 1817.97 601.899 1758.73 510.676C1737.6 478.146 1727.32 441.705 1726.95 405.591L1726.95 408.454C1726.92 409.664 1727.02 410.861 1727.06 412.051L1727.22 415.591C1727.28 416.761 1727.33 417.923 1727.38 419.074L1727.7 422.488C1727.93 424.743 1728.09 426.968 1728.35 429.138L1729.26 435.518C1729.42 436.558 1729.53 437.599 1729.73 438.611C1729.93 439.626 1730.12 440.63 1730.31 441.623L1731.44 447.462L1732.79 452.986L1733.44 455.653L1733.76 456.96L1734.14 458.235L1735.61 463.167C1736.08 464.766 1736.51 466.332 1737.06 467.805C1738.12 470.768 1739.04 473.575 1740.01 476.149L1742.87 483.23C1743.09 483.77 1743.29 484.305 1743.52 484.816L1744.2 486.299L1745.45 489.044L1747.53 493.632L1749.16 496.894C1750.03 498.649 1750.44 499.56 1750.35 499.558C1750.26 499.556 1749.67 498.638 1748.63 496.868C1748.12 495.978 1747.44 494.898 1746.75 493.569L1744.41 488.931C1742.57 485.471 1740.74 481.021 1738.51 475.85L1735.36 467.363C1734.33 464.317 1733.35 461.045 1732.26 457.613C1731.78 455.878 1731.34 454.085 1730.86 452.255L1730.14 449.475L1729.78 448.06C1729.66 447.585 1729.57 447.1 1729.47 446.616C1729.07 444.676 1728.67 442.694 1728.25 440.671C1728.06 439.656 1727.8 438.643 1727.67 437.597C1727.51 436.555 1727.35 435.503 1727.19 434.441C1725.75 425.961 1725.04 416.704 1724.84 406.859C1724.84 404.396 1724.79 401.896 1724.84 399.361L1725.19 391.656C1725.22 390.327 1725.38 389 1725.5 387.659L1725.88 383.616L1726.09 381.338C1726.15 380.578 1726.29 379.83 1726.39 379.077C1726.61 377.575 1726.83 376.079 1727.04 374.597C1728.88 362.697 1859.3 345.452 1862.81 335.089C1863.26 333.832 1736.22 338.549 1736.74 337.075L1737.55 334.78L1738.52 332.353C1739.2 330.678 1739.92 328.888 1740.68 326.976C1741.05 326.013 1741.49 325.046 1741.95 324.051L1743.35 320.963C1747.34 312.274 1752.98 300.928 1762.75 287.253L1764.62 284.63C1765.25 283.736 1765.97 282.897 1766.65 282.012L1770.9 276.675C1772.4 274.932 1773.95 273.209 1775.47 271.482C1776.24 270.625 1776.99 269.753 1777.77 268.922L1780.15 266.502C1781.76 264.885 1783.33 263.23 1784.98 261.661L1790 257.07C1791.63 255.508 1793.4 254.103 1795.13 252.67L1797.73 250.525C1798.6 249.82 1799.43 249.075 1800.34 248.429C1804.01 245.746 1807.35 243.061 1811.13 240.624L1813.96 238.709C1814.93 238.072 1815.88 237.365 1816.92 236.763L1823.45 232.799C1832.34 227.673 1841.92 222.966 1852.15 218.975L1859.93 216.185C1861.22 215.685 1862.58 215.336 1863.91 214.915L1867.94 213.694C1870.34 212.906 1872.87 212.336 1875.45 211.67L1879.36 210.675C1880.69 210.36 1882.04 210.117 1883.4 209.828C1894.31 207.526 1906.4 205.887 1919.62 205.645C1932.36 205.443 1947.53 290.375 1959.88 292.543C1972.21 294.726 1953.26 80.9089 1994.31 219.011C2035.35 357.112 2018.3 229.793 2029.1 236.676C2033.55 239.506 2037.89 242.535 2042.13 245.737C2042.99 246.384 2043.84 247.048 2044.69 247.71C2044.88 247.856 2045.07 247.995 2045.25 248.141C2062.01 261.231 2076.91 277.271 2089.14 296.101Z" fill="url(#paint4_linear_52_4)"/>
</g>
<mask id="mask1_52_4" style="mask-type:luminance" maskUnits="userSpaceOnUse" x="1635" y="-101" width="611" height="601">
<path d="M2193.87 364.867C2193.66 365.193 2193.45 365.518 2193.23 365.837C2193.44 365.516 2193.65 365.189 2193.87 364.867H2193.87ZM1645.3 198.5C1618.6 220.05 1651.03 265.446 1661.55 296.016C1661.67 296.356 1661.79 296.691 1661.91 297.031C1662.45 298.581 1662.98 300.134 1663.55 301.673C1666.28 309.242 1669.32 316.696 1672.65 324.018C1680.72 341.738 1764.42 165.242 1702.39 375.365C1640.37 585.488 1793.26 297.096 1807.18 310.1C1821.13 323.088 1770.14 443.974 1786.55 454.266C1803.61 464.908 1820.38 472.83 1836.2 478.929C1838.18 479.69 1840.11 480.503 1842.06 481.198L1847.87 483.17C1851.7 484.452 1855.41 485.824 1859.12 486.81L1865.27 488.587C1867.32 489.154 1869.33 489.828 1871.4 490.265L1883.63 493.151C1899.98 496.536 1916.09 498.463 1931.67 499.292L1943.27 499.64C1945.11 499.739 1946.9 499.621 1948.66 499.61L1953.86 499.512C1960.7 499.537 1967.18 498.88 1974.07 498.492C1975.77 498.422 1977.45 498.165 1979.15 497.986L1984.23 497.402C1987.63 497.007 1991.05 496.679 1994.43 496.044L2004.63 494.346C2008.02 493.706 2011.39 492.893 2014.79 492.167L2019.83 491.053C2021.51 490.638 2023.19 490.145 2024.88 489.689C2028.25 488.749 2031.65 487.835 2035.01 486.856L2044.84 483.565C2046.45 483.003 2048.06 482.531 2049.6 481.908L2054.15 480.11C2077.94 470.761 2094.53 460.965 2106.81 453.19L2111.15 450.41C2112.56 449.519 2113.93 448.654 2115.19 447.727L2122.4 442.659L2125.65 440.371C2126.66 439.589 2127.64 438.837 2128.58 438.111C2130.46 436.661 1964.57 337.464 1966.18 336.228C1979.24 325.922 2159.83 411.95 2172.02 398.293L2176.56 393.118C2177.31 392.239 2178.1 391.399 2178.81 390.483L2180.97 387.756L2184.8 382.912C2186.06 381.298 2187.37 379.742 2188.51 378.074L2195.33 368.533C2197.49 365.341 2199.5 362.111 2201.55 358.974C2209.44 346.25 2216.2 333.852 2221.39 321.851L2223.39 317.427C2224.08 315.979 2224.59 314.472 2225.19 313.02L2228.56 304.431C2228.83 303.729 2229.12 303.039 2229.37 302.336L2230.07 300.231L2231.46 296.091C2232.36 293.359 2233.28 290.705 2234.1 288.091C2235.56 282.813 2237.02 277.833 2238.23 273.093L2241.24 259.659C2242.68 251.217 2244.02 244.024 2244.54 238.086L2245.41 230.238C2245.62 227.966 2245.66 226.032 2245.74 224.474C2245.88 221.352 2245.89 219.698 2245.78 219.62C2245.67 219.541 2245.43 221.04 2245.08 223.996L2244.46 229.508L2243.31 237.081L2242.64 241.622L2242.28 244.077C2242.14 244.913 2241.96 245.763 2241.79 246.635C2241.11 250.122 2240.37 253.925 2239.57 258.032C2238.68 262.118 2237.53 266.465 2236.42 271.117C2235.91 273.454 2235.15 275.805 2234.44 278.239L2232.22 285.741C2232.03 286.384 2231.84 287.031 2231.65 287.682C2231.43 288.323 2231.21 288.969 2230.98 289.618L2229.61 293.559C2228.68 296.217 2227.73 298.938 2226.75 301.722L2223.35 310.1L2221.59 314.421C2221.02 315.881 2220.29 317.295 2219.63 318.756L2215.51 327.644C2214.05 330.631 2212.41 333.603 2210.83 336.665L2208.41 341.284C2207.52 342.809 2206.62 344.334 2205.73 345.86C2204.83 347.397 2203.92 348.946 2203.01 350.508C2202.07 352.059 2201.22 353.672 2200.18 355.191L2197.8 358.838C2227.24 312.479 2244.3 257.484 2244.3 198.5C2244.3 33.091 2110.21 -101 1944.8 -101C1779.39 -101 1871.4 16 1645.3 198.5Z" fill="white"/>
</mask>
<g mask="url(#mask1_52_4)">
<path fill-rule="evenodd" clip-rule="evenodd" d="M1897.13 9.1449C1897.14 8.7579 1897.13 8.3709 1897.14 7.9839C1897.13 8.3709 1897.13 8.7589 1897.13 9.1449H1897.13ZM2259.14 -95.8991C2318.38 -4.6761 2292.44 117.309 2201.2 176.562C2109.96 235.816 2029.93 -4.34109 1928.73 118.676C1903.69 149.102 1897.32 49.7049 1896.95 13.5909L1896.95 16.4539C1896.92 17.6639 1897.02 18.8609 1897.06 20.0509L1897.22 23.5909C1897.28 24.7609 1897.33 25.9229 1897.39 27.0739L1897.71 30.4879C1897.93 32.7429 1898.09 34.9679 1898.36 37.1379L1899.27 43.5179C1899.43 44.5579 1899.53 45.5989 1899.74 46.6109C1899.93 47.6259 1900.12 48.6299 1900.31 49.6229L1901.44 55.4619L1902.79 60.9859L1903.44 63.6529L1903.76 64.9599L1904.14 66.2349L1905.61 71.1669C1906.08 72.7659 1906.51 74.3319 1907.07 75.8049C1908.12 78.7679 1909.05 81.5749 1910.02 84.1489L1912.87 91.2299C1913.09 91.7699 1913.29 92.3049 1913.52 92.8159L1914.2 94.2989L1915.45 97.0439L1917.53 101.632L1919.17 104.894C1920.03 106.649 1920.44 107.56 1920.35 107.558C1920.26 107.556 1919.67 106.638 1918.63 104.868C1918.12 103.978 1917.45 102.898 1916.75 101.569L1914.41 96.9309C1912.57 93.4709 1910.74 89.0209 1908.51 83.8499L1905.36 75.3629C1904.33 72.3169 1903.35 69.0449 1902.26 65.6129C1901.78 63.8779 1901.34 62.0849 1900.86 60.2549L1900.14 57.4749L1899.78 56.0599C1899.66 55.5849 1899.57 55.0999 1899.47 54.6159C1899.07 52.6759 1898.67 50.6939 1898.25 48.6709C1898.06 47.6559 1897.8 46.6429 1897.67 45.5969C1897.51 44.5549 1897.35 43.5029 1897.19 42.4409C1895.75 33.9609 1895.04 24.7039 1894.84 14.8589C1894.84 12.3959 1894.79 9.8959 1894.84 7.3609L1895.19 -0.344101C1895.22 -1.6731 1895.38 -3.00011 1895.5 -4.34111L1895.88 -8.38411L1896.09 -10.6621C1896.15 -11.4221 1896.29 -12.1701 1896.39 -12.9231C1896.61 -14.4251 1896.83 -15.9211 1897.04 -17.4031C1898.88 -29.3031 2029.3 -46.5481 2032.82 -56.9111C2033.26 -58.1681 1906.23 -53.4511 1906.75 -54.9251L1907.55 -57.2201L1908.53 -59.6471C1909.2 -61.3221 1909.92 -63.1121 1910.69 -65.0241C1911.05 -65.9871 1911.49 -66.9541 1911.95 -67.9491L1913.35 -71.0371C1917.34 -79.7261 1922.99 -91.0721 1932.76 -104.747L1934.62 -107.37C1935.25 -108.264 1935.97 -109.103 1936.65 -109.988L1940.9 -115.325C1942.4 -117.068 1943.95 -118.791 1945.47 -120.518C1946.24 -121.375 1946.99 -122.247 1947.77 -123.078L1950.15 -125.498C1951.76 -127.115 1953.33 -128.77 1954.98 -130.339L1960 -134.93C1961.63 -136.492 1963.4 -137.897 1965.13 -139.33L1967.73 -141.475C1968.6 -142.18 1969.43 -142.925 1970.35 -143.571C1974.01 -146.254 1977.35 -148.939 1981.13 -151.376L1983.96 -153.291C1984.93 -153.928 1985.88 -154.635 1986.92 -155.237L1993.45 -159.201C2002.34 -164.327 2011.92 -169.034 2022.15 -173.025L2029.93 -175.815C2031.23 -176.315 2032.58 -176.664 2033.91 -177.085L2037.94 -178.306C2040.34 -179.094 2042.88 -179.664 2045.45 -180.33L2049.36 -181.325C2050.69 -181.64 2052.04 -181.883 2053.4 -182.172C2064.31 -184.474 2076.4 -186.113 2089.62 -186.355C2102.36 -186.557 2117.53 -101.625 2129.88 -99.4571C2142.22 -97.2741 2123.27 -311.091 2164.31 -172.989C2205.35 -34.8881 2188.31 -162.207 2199.1 -155.324C2203.55 -152.494 2207.89 -149.465 2212.13 -146.263C2212.99 -145.616 2213.84 -144.952 2214.69 -144.29C2214.88 -144.144 2215.07 -144.005 2215.25 -143.859C2232.01 -130.769 2246.92 -114.729 2259.14 -95.8991Z" fill="url(#paint5_linear_52_4)"/>
</g>
<path fill-rule="evenodd" clip-rule="evenodd" d="M1569.78 84.225L1567.86 76.9796C1567.16 74.5789 1566.73 72.1143 1566.19 69.676C1565.67 67.2308 1565.11 64.794 1564.76 62.3162C1564.37 59.8479 1563.95 57.3841 1563.59 54.9106L1562.78 47.4559L1562.57 45.5927L1562.46 43.72L1562.24 39.976L1562.02 36.2316C1561.98 34.9826 1561.99 33.7317 1561.97 32.4815L1561.94 28.7299C1561.94 27.4792 1561.89 26.2277 1561.96 24.98L1562.25 17.486C1562.27 16.861 1562.31 16.2369 1562.37 15.6151L1562.53 13.7477L1562.86 10.0122C1562.98 8.76913 1563.03 7.51692 1563.22 6.28049L1563.72 2.56474C1564.29 -2.40626 1565.3 -7.30913 1566.24 -12.2242L1567.97 -19.5304C1568.24 -20.7537 1568.59 -21.9548 1568.95 -23.1562L1569.99 -26.7642C1570.35 -27.9656 1570.68 -29.1744 1571.06 -30.3701L1572.28 -33.9237L1573.5 -37.478C1573.71 -38.0689 1573.9 -38.6665 1574.12 -39.2522L1574.81 -40.9984L1577.59 -47.9825L1765.6 -66.3984C1769.91 -75.4469 1485.81 -9.09807 1491.38 -17.4465C1497.04 -25.7341 1607.4 -97.1557 1614.16 -104.573L1619.35 -110.024C1621.12 -111.801 1622.97 -113.498 1624.78 -115.238C1626.56 -117.006 1628.49 -118.615 1630.39 -120.255C1632.3 -121.888 1634.17 -123.567 1636.19 -125.067C1644 -131.402 1652.51 -136.859 1661.27 -141.791L1664.58 -143.605C1665.69 -144.202 1666.78 -144.84 1667.92 -145.365L1674.71 -148.66C1675.83 -149.235 1677 -149.691 1678.15 -150.195L1681.61 -151.678L1685.08 -153.164L1688.6 -154.483L1692.12 -155.812C1693.3 -156.245 1694.45 -156.733 1695.66 -157.093L1702.8 -159.44C1703.98 -159.858 1705.19 -160.182 1706.4 -160.513L1710.02 -161.519L1713.64 -162.53C1714.85 -162.831 1716.08 -163.088 1717.3 -163.37C1727.05 -165.744 1737.03 -167.169 1747.08 -167.808L1750.85 -168.015L1752.74 -168.114C1753.37 -168.135 1754 -168.121 1754.63 -168.126L1762.19 -168.114C1767.22 -167.864 1772.26 -167.687 1777.27 -167.055L1781.03 -166.657C1781.65 -166.598 1782.28 -166.515 1782.9 -166.408L1784.76 -166.12L1788.5 -165.542L1790.36 -165.255C1790.98 -165.17 1791.6 -165.061 1792.22 -164.928L1799.62 -163.445C1800.86 -163.228 1802.07 -162.88 1803.29 -162.593L1806.95 -161.698C1808.17 -161.388 1809.4 -161.135 1810.61 -160.778L1814.22 -159.717C1816.63 -158.993 1819.06 -158.353 1821.41 -157.48C1823.78 -156.648 1826.17 -155.856 1828.52 -154.988L1835.51 -152.183C1844.76 -148.248 1853.71 -143.659 1862.3 -138.45C1870.86 -133.145 1879.03 -127.256 1886.78 -120.825L1892.49 -115.889L1897.96 -110.68L1899.32 -109.375C1899.78 -108.939 1900.2 -108.467 1900.63 -108.015L1903.23 -105.272L1905.82 -102.526C1906.68 -101.601 1907.47 -100.62 1908.29 -99.6693L1910.74 -96.7951C1911.55 -95.8316 1912.4 -94.9014 1913.15 -93.8863L1917.76 -87.9096L1918.34 -87.1626L1918.88 -86.3888L1919.96 -84.8397L1922.12 -81.74C1922.83 -80.7002 1923.58 -79.691 1924.25 -78.6252L1926.26 -75.4231L1928.26 -72.2203C1928.59 -71.6834 1928.94 -71.1581 1929.25 -70.6128L1930.17 -68.9625L1933.85 -62.3634C1936.06 -57.8424 1938.41 -53.3806 1940.29 -48.7102C1942.38 -44.1278 1944.02 -39.3647 1945.8 -34.6516C1946.59 -32.2601 1947.34 -29.8526 1948.11 -27.4523L1948.68 -25.6509C1948.88 -25.053 1949.06 -24.4495 1949.21 -23.8368L1950.18 -20.1817L1951.14 -16.5231C1951.29 -15.9124 1951.47 -15.3076 1951.61 -14.6919L1952 -12.842L1953.55 -5.43972C1954.32 -0.461171 1955.22 4.50192 1955.62 9.52147C1955.87 12.0234 1956.18 14.5196 1956.24 17.0328C1956.35 19.5417 1956.5 22.0478 1956.57 24.5545L1956.54 32.077L1956.52 33.9569L1956.42 35.8348L1956.22 39.5862C1955.58 49.5804 1954.35 59.5453 1952.21 69.3479C1951.78 71.8185 1951.11 74.2415 1950.53 76.6817L1949.63 80.34C1949.34 81.5623 1948.94 82.7541 1948.59 83.963L1947.53 87.5774C1947.16 88.779 1946.85 90.0002 1946.41 91.1796L1943.94 98.3066C1940.42 107.719 1936.21 116.859 1931.34 125.651C1927.37 132.638 1922.96 139.361 1918.12 145.778L1919.99 143.186L1921.09 141.661L1921.64 140.899L1922.15 140.111L1924.19 136.956C1925.54 134.85 1926.93 132.765 1928.13 130.565C1929.35 128.384 1930.64 126.236 1931.81 124.025L1935.18 117.326C1935.77 116.222 1936.24 115.061 1936.75 113.923L1938.27 110.496C1938.77 109.349 1939.31 108.224 1939.76 107.059L1941.12 103.567C1942 101.232 1942.98 98.9308 1943.72 96.5453C1944.51 94.1768 1945.34 91.8217 1946.1 89.4446L1948.19 82.2519C1950.81 72.6136 1952.85 62.8048 1954.18 52.8806C1955.39 42.9431 1955.88 32.9127 1955.55 22.9087L1955.12 15.4168L1955.07 14.4803L1954.96 13.5477L1954.76 11.6833L1954.34 7.95858C1954.19 6.71757 1954.09 5.47066 1953.9 4.23699L1953.29 0.538864L1952.68 -3.15769L1952.37 -5.005L1951.97 -6.83528L1950.38 -14.1548C1949.78 -16.5764 1949.09 -18.9781 1948.45 -21.3908C1948.11 -22.5917 1947.84 -23.811 1947.45 -24.9968L1946.3 -28.5612L1945.16 -32.126L1944.59 -33.91L1943.93 -35.6638L1943.35 -37.2244C1942.99 -38.199 1942.63 -39.1682 1942.26 -40.1339L1941.29 -42.7359C1940.68 -44.2879 1940.01 -45.8211 1939.35 -47.3556C1939.19 -47.7411 1939.02 -48.1266 1938.85 -48.5101C1938.68 -48.9025 1938.52 -49.2939 1938.35 -49.6876C1937.84 -50.8391 1937.39 -52.0142 1936.84 -53.1469L1935.18 -56.5406L1933.53 -59.9366C1933.25 -60.5005 1932.98 -61.0709 1932.7 -61.6319L1931.78 -63.2864L1928.14 -69.9042C1926.83 -72.0595 1925.49 -74.1917 1924.17 -76.3357C1922.89 -78.507 1921.39 -80.5362 1919.97 -82.6153L1917.81 -85.7169C1917.46 -86.2416 1917.08 -86.7413 1916.69 -87.2359L1915.53 -88.7307C1909.51 -96.8048 1902.68 -104.252 1895.42 -111.202C1893.48 -113.115 1891.46 -114.935 1889.4 -116.72C1878.76 -126.169 1867.13 -134.438 1854.7 -141.38C1854.12 -141.716 1853.55 -142.057 1852.96 -142.389L1846.28 -145.913C1837.27 -150.429 1792.59 -93.7691 1783 -96.8623C1773.39 -99.8834 1798.89 -162.645 1788.94 -164.199L1781.46 -165.226L1773.94 -165.898C1773.32 -165.951 1772.69 -166.017 1772.07 -166.06L1770.18 -166.137L1766.41 -166.291L1762.64 -166.446L1759.05 -166.419C1757.98 -166.42 1756.92 -166.409 1755.85 -166.393L1755.1 -166.387L1753.21 -166.37C1752.64 -166.356 1752.08 -166.312 1751.51 -166.28C1732.68 -165.57 1713.64 -162.13 1694.9 -155.678C1592.34 -120.365 1537.83 -8.59948 1573.14 93.9552C1588.79 139.384 1619.44 175.374 1657.63 198.316C1662.37 201.233 1667.24 203.968 1672.22 206.483C1681.05 210.845 1690.17 214.597 1699.44 217.751C1708.68 220.823 1699.34 145.856 1727.99 224.862L1735.3 225.987C1737.75 226.298 1740.21 226.516 1742.65 226.788L1744.49 226.983L1745.41 227.079L1746.33 227.132L1750.02 227.346C1752.47 227.472 1754.92 227.694 1757.38 227.668L1764.92 227.758L1772.41 227.51L1774.29 227.45C1774.91 227.42 1775.53 227.355 1776.15 227.309L1779.88 227.007L1783.6 226.707C1784.85 226.613 1786.07 226.402 1787.31 226.255C1797.23 225.154 1807.03 223.022 1816.81 220.216C1819.25 219.461 1821.7 218.755 1824.13 217.959L1831.34 215.36L1833.15 214.71L1834.92 213.974L1838.46 212.491L1842 211.007C1843.18 210.513 1844.31 209.916 1845.48 209.376C1854.79 205.113 1863.68 199.916 1872.19 194.176L1875.37 191.992L1876.95 190.894L1878.49 189.721L1884.62 184.999L1890.51 179.966L1891.98 178.703C1892.47 178.272 1892.93 177.818 1893.4 177.377L1896.21 174.71L1899.03 172.042C1899.94 171.122 1900.82 170.177 1901.72 169.248L1904.4 166.449L1905.74 165.049C1906.18 164.573 1906.59 164.079 1907.02 163.595L1912.11 157.764L1916.93 151.725C1923.22 143.579 1928.91 134.991 1933.97 126.028C1938.93 117.001 1943.22 107.622 1946.8 97.9658L1949.31 90.8092L1951.47 83.5323L1952.01 81.7115L1952.46 79.8674L1953.36 76.1775L1954.26 72.4863L1954.98 68.7576L1955.7 65.0277L1956.06 63.1634C1956.17 62.5421 1956.24 61.9115 1956.34 61.2853L1957.41 53.7674C1957.91 48.7312 1958.49 43.7002 1958.64 38.6446L1958.83 34.8583L1958.88 33.9116L1958.88 32.9653L1958.89 31.0732C1958.89 28.5505 1958.95 26.0291 1958.92 23.5099C1958.82 20.9914 1958.72 18.4744 1958.63 15.9597L1958.55 14.0721L1958.39 12.1905L1958.06 8.42697L1957.73 4.66185C1957.6 3.40894 1957.4 2.16428 1957.23 0.914523L1956.71 -2.83286L1956.45 -4.70811L1956.32 -5.64604L1956.14 -6.57468L1954.68 -14.0189C1954.55 -14.6384 1954.45 -15.2636 1954.3 -15.8787L1953.83 -17.7207L1952.89 -21.4064L1951.93 -25.0961C1951.59 -26.3188 1951.18 -27.5218 1950.81 -28.7366C1950.03 -31.1554 1949.3 -33.5954 1948.46 -35.9969L1945.77 -43.1405L1945.1 -44.926L1944.34 -46.6781L1942.81 -50.1768L1941.27 -53.6745C1940.78 -54.8467 1940.16 -55.9619 1939.61 -57.1086C1938.46 -59.3815 1937.36 -61.6761 1936.18 -63.9284L1932.45 -70.5827L1931.52 -72.2465L1930.51 -73.862L1928.5 -77.096L1926.49 -80.33C1925.8 -81.3952 1925.05 -82.422 1924.34 -83.4699L1922.16 -86.5986C1921.43 -87.6336 1920.74 -88.7049 1919.94 -89.6939L1915.29 -95.7233C1914.53 -96.7465 1913.67 -97.6791 1912.85 -98.6533L1910.38 -101.549C1909.55 -102.507 1908.75 -103.496 1907.88 -104.427L1905.27 -107.197L1902.66 -109.968C1902.22 -110.425 1901.79 -110.901 1901.34 -111.344L1899.97 -112.664L1894.47 -117.941L1888.74 -122.954C1880.97 -129.492 1872.82 -135.586 1864.22 -141.017C1855.59 -146.377 1846.57 -151.131 1837.22 -155.144C1818.45 -163.014 1798.49 -168.05 1778.24 -169.917L1774.44 -170.26L1772.55 -170.428L1770.65 -170.503L1763.05 -170.778C1757.98 -170.71 1752.91 -170.741 1747.87 -170.3C1745.34 -170.124 1742.82 -170.004 1740.31 -169.658C1737.8 -169.358 1735.28 -169.088 1732.77 -168.765L1725.28 -167.529L1723.41 -167.222C1722.78 -167.109 1722.17 -166.962 1721.55 -166.835L1717.83 -166.044L1714.11 -165.262C1713.49 -165.144 1712.87 -164.986 1712.26 -164.822L1710.42 -164.346C1707.96 -163.701 1705.49 -163.098 1703.04 -162.429L1695.73 -160.184L1693.91 -159.624C1693.3 -159.44 1692.71 -159.199 1692.1 -158.99L1688.51 -157.688C1683.67 -156.055 1679.02 -153.941 1674.32 -151.964C1669.74 -149.722 1665.12 -147.581 1660.75 -144.992C1650.67 -139.285 1641.22 -132.664 1632.43 -125.309C1623.67 -117.9 1615.59 -109.759 1608.12 -101.021C1593.17 -83.5225 1581.34 -63.5916 1573.31 -42.1451C1565.24 -20.7694 1560.4 2.29447 1560.16 25.1192C1560.06 36.4299 1560.94 47.728 1562.8 58.8866L1563.52 63.0495L1563.88 65.1296L1564.35 67.1904C1564.98 69.9343 1565.57 72.687 1566.24 75.4216L1568.51 83.5579C1568.86 84.9244 1569.37 86.2432 1569.8 87.5846L1571.14 91.5971C1572.3 95.0732 1573.25 95.0902 1572.06 91.3668L1569.78 84.225Z" fill="url(#paint6_linear_52_4)"/>
<path fill-rule="evenodd" clip-rule="evenodd" d="M2344.89 21.556C2350.49 26.0719 2356.41 30.406 2362.18 34.021C2363.89 35.175 2365.61 36.186 2367.25 37.108C2346.52 30.792 2326.58 21.926 2308.09 10.651C2303.24 7.54095 2298.33 4.55295 2293.73 1.14395L2290.23 -1.33805L2288.48 -2.57805L2288.2 -2.79805C2287.22 -3.90905 2285.73 -5.62005 2283.77 -7.75805L2281.56 -10.182C2280.78 -11.043 2279.93 -11.9341 2279.11 -12.9571L2273.63 -19.498C2273.14 -20.082 2272.64 -20.6761 2272.13 -21.2801C2271.63 -21.8931 2271.16 -22.545 2270.66 -23.189L2267.61 -27.1691L2264.44 -31.309L2261.8 -35.1021C2285.61 -10.5161 2313.98 8.62595 2344.89 21.556Z" fill="white" fill-opacity="0.32"/>
<path fill-rule="evenodd" clip-rule="evenodd" d="M2496.14 242.572C2497.41 240.375 2498.69 237.952 2500.23 235.476C2503.96 229.314 2508.54 222.563 2513.63 215.815C2497.28 245.758 2486.96 279.136 2483.97 314.051" fill="url(#paint7_linear_52_4)"/>
<path fill-rule="evenodd" clip-rule="evenodd" d="M2261.76 214.527C2262.95 216.767 2264.32 219.138 2265.61 221.754C2268.86 228.183 2272.15 235.648 2275.18 243.541C2258.45 213.804 2235.61 187.366 2207.59 166.325" fill="white"/>
<path fill-rule="evenodd" clip-rule="evenodd" d="M1789.28 591.234C1783.25 595.558 1776.6 601.172 1770.54 607.865C1769.55 608.947 1768.56 610.038 1767.59 611.138C1781.54 586.657 1799.53 564.501 1820.59 545.804C1821.44 545.337 1822.43 544.761 1823.59 544.09C1824.7 543.43 1827.17 541.861 1830.59 539.696L1831.92 538.858L1833.38 538.027L1836.53 536.234C1838.75 535.004 1841.1 533.587 1843.69 532.258C1850.06 528.896 1857.47 525.471 1865.31 522.308C1835.87 539.551 1809.83 562.848 1789.28 591.234Z" fill="url(#paint8_linear_52_4)"/>
<path fill-rule="evenodd" clip-rule="evenodd" d="M2495.54 150.578C2489.41 146.392 2481.86 142.061 2473.5 138.654C2472.14 138.091 2470.78 137.539 2469.42 137C2497.19 141.741 2524.17 151.068 2548.93 164.457C2549.66 165.097 2550.55 165.833 2551.58 166.696C2552.57 167.506 2554.89 169.292 2558.1 171.766L2559.34 172.727L2560.62 173.814L2563.38 176.167C2565.3 177.831 2567.43 179.553 2569.57 181.534C2574.91 186.371 2580.66 192.159 2586.31 198.444C2560.04 176.676 2529.24 160.179 2495.54 150.578Z" fill="url(#paint9_linear_52_4)"/>
<path fill-rule="evenodd" clip-rule="evenodd" d="M1658.37 -108.265C1652.3 -111.128 1646.08 -113.615 1639.75 -115.621C1638.16 -116.116 1636.56 -116.537 1634.97 -116.997C1634.17 -117.218 1633.37 -117.456 1632.58 -117.662L1630.16 -118.218L1627.75 -118.772C1626.95 -118.949 1626.15 -119.162 1625.34 -119.289L1620.5 -120.153L1619.26 -120.373L1618.01 -120.533L1615.51 -120.853C1613.85 -121.067 1612.18 -121.305 1610.51 -121.403L1605.48 -121.796L1600.45 -121.944C1599.61 -121.961 1598.77 -122.01 1597.93 -121.998L1595.41 -121.945L1592.89 -121.892C1592.05 -121.867 1591.21 -121.875 1590.37 -121.797L1585.35 -121.437L1584.09 -121.343L1582.84 -121.191L1580.34 -120.886L1577.83 -120.579C1577 -120.493 1576.18 -120.308 1575.35 -120.177L1570.38 -119.31C1567.1 -118.551 1563.8 -117.903 1560.58 -116.926C1557.31 -116.089 1554.15 -114.952 1550.95 -113.893C1549.38 -113.3 1547.81 -112.674 1546.25 -112.065C1544.67 -111.482 1543.14 -110.772 1541.6 -110.081C1538.5 -108.762 1535.54 -107.173 1532.54 -105.65C1529.62 -103.974 1526.66 -102.376 1523.86 -100.508C1520.99 -98.7539 1518.29 -96.7439 1515.54 -94.8079C1512.91 -92.7279 1510.21 -90.7129 1507.71 -88.4639C1506.44 -87.3659 1505.15 -86.2849 1503.96 -85.1039C1502.75 -83.9439 1501.51 -82.7999 1500.32 -81.6239L1496.83 -77.9839L1495.96 -77.0739L1495.13 -76.1239L1493.48 -74.2239L1491.83 -72.3239C1491.28 -71.6859 1490.78 -71.0119 1490.25 -70.3579C1489.22 -69.0329 1488.15 -67.7379 1487.15 -66.3879L1484.22 -62.2889C1483.72 -61.6149 1483.26 -60.9089 1482.81 -60.2009L1481.44 -58.0839L1480.1 -55.9969C1479.67 -55.2889 1479.27 -54.5669 1478.85 -53.8509C1478.03 -52.4109 1477.16 -50.9969 1476.39 -49.5319L1474.12 -45.1099C1473.93 -44.7399 1473.73 -44.3749 1473.56 -43.9999L1473.04 -42.8679L1472.02 -40.6019L1470.99 -38.3349C1470.66 -37.5769 1470.37 -36.7959 1470.06 -36.0279C1469.46 -34.4819 1468.83 -32.9479 1468.26 -31.3919L1466.67 -26.6779L1466.27 -25.4999C1466.14 -25.1069 1466.04 -24.7039 1465.92 -24.3059L1465.24 -21.9129C1464.27 -18.7399 1463.62 -15.4849 1462.86 -12.2599L1461.98 -7.36688C1461.84 -6.54988 1461.67 -5.73889 1461.56 -4.91689L1461.25 -2.45289L1460.93 0.011116C1460.83 0.831116 1460.71 1.65111 1460.66 2.47811L1460.28 7.42712L1460.19 8.66412L1460.15 9.90413L1460.08 12.3831C1460.05 14.0351 1459.96 15.6871 1460.03 17.3391L1460.13 22.2911C1460.2 23.9391 1460.35 25.5841 1460.45 27.2301L1460.63 29.6971L1460.91 32.1531C1461.12 33.7891 1461.29 35.4301 1461.52 37.0611C1462.09 40.3071 1462.55 43.5731 1463.34 46.7771C1463.98 50.0121 1464.91 53.1751 1465.78 56.3571C1466.25 57.9371 1466.79 59.4951 1467.3 61.0651C1467.56 61.8481 1467.81 62.6361 1468.08 63.4141L1468.97 65.7241L1469.86 68.0361C1470.16 68.8061 1470.44 69.5841 1470.79 70.3331L1472.79 74.8661C1473.11 75.6291 1473.5 76.3621 1473.87 77.1011L1474.98 79.3191L1476.1 81.5351C1476.5 82.2641 1476.92 82.9791 1477.32 83.7011C1478.15 85.1351 1478.94 86.5971 1479.81 88.0101L1482.48 92.2101C1486.41 98.0964 1490.76 103.685 1495.51 108.929C1500.33 114.135 1505.53 118.981 1511.05 123.428L1515.26 126.691L1519.61 129.754L1520.7 130.516L1521.82 131.23L1524.07 132.655L1526.32 134.078L1528.63 135.394L1530.94 136.71L1532.09 137.367L1533.28 137.971L1538.01 140.378C1541.24 141.831 1544.45 143.34 1547.77 144.57C1554.35 147.132 1561.13 149.256 1568.07 150.718C1568.94 150.907 1569.8 151.128 1570.67 151.291L1573.29 151.752L1575.91 152.212L1577.22 152.438L1578.54 152.603L1583.82 153.259C1585.58 153.419 1587.35 153.529 1589.12 153.665C1590.01 153.715 1590.89 153.825 1591.77 153.828L1594.43 153.891L1597.09 153.954C1597.53 153.961 1597.97 153.981 1598.42 153.978L1599.74 153.944L1605.05 153.806C1606.82 153.709 1608.58 153.55 1610.34 153.425C1611.22 153.347 1612.11 153.317 1612.98 153.199L1615.61 152.871L1618.24 152.542C1618.68 152.484 1619.12 152.441 1619.56 152.371L1620.86 152.143L1626.07 151.233L1631.23 150.084C1631.83 149.951 1632.43 149.807 1633.03 149.653C1633.51 149.509 1633.98 149.357 1634.46 149.199C1635.28 148.922 1635.83 148.702 1636.06 148.573C1636.51 148.315 1635.64 148.42 1632.97 149.151L1628.05 150.25C1627.23 150.42 1626.42 150.64 1625.59 150.771L1623.1 151.198L1620.61 151.626L1619.36 151.84L1618.11 151.996C1616.43 152.2 1614.76 152.404 1613.08 152.609C1612.25 152.73 1611.4 152.753 1610.56 152.825L1608.03 153.008L1605.5 153.19L1602.97 153.253C1601.28 153.283 1599.59 153.349 1597.89 153.349L1592.82 153.211C1586.06 152.88 1579.29 152.246 1572.65 150.913C1566.01 149.63 1559.43 147.971 1553.09 145.688C1546.74 143.452 1540.52 140.843 1534.6 137.668C1528.66 134.524 1522.89 131.046 1517.5 127.042C1506.64 119.156 1496.98 109.655 1488.9 99.0021C1481.03 88.6081 1474.57 77.0961 1469.94 64.8871C1469.64 64.1261 1469.33 63.3711 1469.06 62.6031L1468.28 60.2831L1467.5 57.9631C1467.24 57.1881 1466.97 56.4201 1466.76 55.6291L1465.44 50.9191C1465.21 50.1362 1465.01 49.3449 1464.85 48.5471L1464.3 46.1631L1463.76 43.7801C1463.58 42.9881 1463.47 42.1781 1463.32 41.3781L1462.48 36.5681L1461.89 31.7251C1461.8 30.9171 1461.67 30.1131 1461.61 29.3031L1461.44 26.8731C1460.88 20.3991 1460.99 13.9041 1461.36 7.45212L1461.77 2.61912C1461.82 1.81212 1461.94 1.01211 1462.05 0.211113L1462.38 -2.18989L1462.71 -4.58988C1462.8 -5.39288 1462.99 -6.17988 1463.13 -6.97588L1464.02 -11.7369L1465.15 -16.4489C1465.35 -17.2309 1465.51 -18.0219 1465.74 -18.7989L1466.42 -21.1219L1467.1 -23.4459C1467.33 -24.2199 1467.55 -24.9989 1467.83 -25.7569L1469.42 -30.3339C1469.67 -31.1019 1469.98 -31.8499 1470.28 -32.5979L1471.19 -34.8469L1472.1 -37.0959C1472.4 -37.8439 1472.77 -38.5679 1473.1 -39.3059C1473.78 -40.7729 1474.44 -42.2509 1475.14 -43.7099L1477.38 -48.0229C1478.11 -49.5129 1479 -50.9189 1479.82 -52.3629L1481.07 -54.5189C1481.48 -55.2469 1481.96 -55.9239 1482.4 -56.6289C1483.31 -58.0219 1484.19 -59.4329 1485.11 -60.8149L1488.01 -64.8809L1488.73 -65.8979L1489.5 -66.8799L1491.05 -68.8439L1492.59 -70.8099C1493.11 -71.4599 1493.67 -72.0749 1494.21 -72.7099C1495.31 -73.9609 1496.37 -75.2499 1497.5 -76.4729L1500.95 -80.0979C1505.65 -84.8189 1510.64 -89.2739 1515.96 -93.2999C1521.31 -97.2839 1526.9 -100.932 1532.75 -104.13C1538.62 -107.26 1544.69 -110.027 1550.93 -112.337C1557.2 -114.563 1563.59 -116.431 1570.11 -117.787C1571.73 -118.137 1573.38 -118.38 1575.02 -118.682L1577.47 -119.113L1579.95 -119.423C1581.6 -119.615 1583.25 -119.863 1584.9 -120.01L1589.88 -120.378C1596.52 -120.701 1603.19 -120.751 1609.83 -120.112C1616.71 -119.505 1623.59 -118.468 1630.31 -116.737C1631.15 -116.527 1632 -116.357 1632.84 -116.113L1635.34 -115.385C1637 -114.88 1638.68 -114.459 1640.31 -113.851L1645.24 -112.138L1650.07 -110.185C1656.47 -107.457 1662.69 -104.297 1668.63 -100.665C1674.55 -96.9837 1680.21 -92.8966 1685.56 -88.4329L1689.52 -84.9979C1690.81 -83.8159 1692.05 -82.5959 1693.32 -81.3979C1694.61 -80.2229 1695.78 -78.9209 1697 -77.6719L1698.81 -75.7839C1699.4 -75.1459 1699.96 -74.4759 1700.54 -73.8239L1702.26 -71.8549C1702.83 -71.2009 1703.41 -70.5489 1703.94 -69.8569L1707.19 -65.7669C1709.23 -62.9519 1711.31 -60.1619 1713.16 -57.2129C1716.92 -51.3749 1720.32 -45.2999 1723.09 -38.9599C1723.85 -37.4029 1724.47 -35.7869 1725.11 -34.1849C1725.75 -32.5809 1726.43 -30.9909 1726.96 -29.3479C1727.52 -27.7149 1728.1 -26.0929 1728.63 -24.4529L1730.07 -19.4929C1730.45 -18.2679 1730.69 -17.1349 1730.96 -16.1469C1731.23 -15.1569 1731.47 -14.2989 1731.69 -13.5819C1731.91 -12.8639 1732.1 -12.2879 1732.26 -11.8589C1732.41 -11.4269 1732.52 -11.1439 1732.62 -11.0209C1732.79 -10.7709 1732.89 -11.1649 1732.78 -12.2529C1732.65 -13.3369 1732.33 -15.1199 1731.77 -17.6659C1728.73 -30.5018 1723.78 -42.8105 1717.09 -54.1839C1716.29 -55.6599 1715.35 -57.0559 1714.45 -58.4799C1713.54 -59.8959 1712.66 -61.3369 1711.66 -62.6949C1710.68 -64.0689 1709.71 -65.4549 1708.72 -66.8219L1705.59 -70.8139L1704.8 -71.8129L1703.97 -72.7749L1702.31 -74.6949L1700.65 -76.6149C1700.09 -77.2489 1699.49 -77.8469 1698.91 -78.4649C1697.73 -79.6809 1696.59 -80.9369 1695.38 -82.1169L1691.71 -85.6179C1686.72 -90.1519 1681.44 -94.3879 1675.86 -98.1869C1670.25 -101.936 1664.41 -105.323 1658.37 -108.266" fill="url(#paint10_linear_52_4)"/>
<path fill-rule="evenodd" clip-rule="evenodd" d="M2216.04 436.208L2215.31 440.876C2215.11 442.433 2215.1 444.016 2215 445.583C2214.98 446.368 2214.92 447.152 2214.92 447.936L2215.03 450.291L2215.15 452.641L2215.22 453.814L2215.38 454.98L2216.08 459.625C2216.79 462.668 2217.44 465.732 2218.55 468.654C2220.58 474.557 2223.06 480.378 2226.58 485.645C2227.01 486.304 2227.39 487.008 2227.88 487.627L2229.33 489.51C2230.31 490.755 2231.26 492.041 2232.4 493.144C2233.52 494.275 2234.62 495.43 2235.8 496.486C2237.04 497.49 2238.3 498.468 2239.57 499.41C2240.24 499.901 2240.21 499.69 2239.54 499.159C2238.44 498.278 2237.36 497.375 2236.29 496.458C2235.23 495.54 2234.32 494.462 2233.35 493.454L2231.94 491.908C2231.47 491.398 2231.09 490.81 2230.66 490.262L2228.2 486.911C2227.46 485.738 2226.76 484.545 2226.06 483.365C2225.71 482.772 2225.34 482.191 2225.01 481.589L2224.1 479.737C2223.51 478.498 2222.86 477.296 2222.31 476.04L2220.74 472.238C2218.8 467.176 2217.25 461.901 2216.66 456.468C2216.21 453.77 2216.24 451.03 2216.15 448.304C2216.14 446.94 2216.3 445.582 2216.38 444.222C2216.49 442.864 2216.56 441.502 2216.85 440.17L2217.63 436.025C2217.93 434.654 2218.39 433.32 2218.77 431.972L2219.38 429.958C2219.57 429.284 2219.89 428.65 2220.14 427.995L2221.76 424.111C2222.38 422.855 2223.07 421.629 2223.73 420.393L2224.74 418.55L2225.9 416.801C2226.7 415.646 2227.44 414.454 2228.28 413.34L2230.94 410.089C2234.65 405.926 2238.67 401.948 2243.35 398.825C2243.92 398.422 2244.48 397.995 2245.07 397.614L2246.89 396.544C2248.11 395.856 2249.29 395.082 2250.57 394.488L2254.41 392.751C2255.05 392.447 2255.71 392.212 2256.38 392L2258.39 391.342C2261.03 390.377 2263.83 389.956 2266.57 389.381C2267.96 389.216 2269.36 389.084 2270.76 388.95C2271.45 388.895 2272.15 388.797 2272.85 388.783L2274.94 388.783C2280.55 388.628 2286.08 389.575 2291.47 390.826L2295.47 391.981L2296.47 392.272C2296.8 392.385 2297.12 392.521 2297.44 392.646L2299.38 393.41C2302.01 394.34 2304.46 395.686 2306.93 396.962C2308.16 397.618 2309.3 398.434 2310.48 399.171L2312.23 400.313C2312.8 400.711 2313.33 401.164 2313.88 401.59C2314.97 402.461 2316.07 403.317 2317.13 404.219L2320.12 407.136C2323.93 411.168 2327.41 415.578 2330 420.507L2331.03 422.326L2331.89 424.227C2332.44 425.503 2333.06 426.755 2333.54 428.058C2334.43 430.696 2335.39 433.317 2335.91 436.065C2336.63 438.768 2336.84 441.566 2337.14 444.337C2337.23 445.729 2337.2 447.128 2337.22 448.52L2337.22 450.608L2337.03 452.688C2336.89 454.072 2336.78 455.458 2336.61 456.834L2335.83 460.912C2335.68 461.589 2335.58 462.275 2335.41 462.943L2334.84 464.936C2334.44 466.259 2334.1 467.6 2333.67 468.91C2331.66 474.726 2328.86 480.238 2325.35 485.291L2322.55 488.97C2321.55 490.141 2320.47 491.251 2319.42 492.386C2318.41 493.555 2317.2 494.527 2316.05 495.56L2314.29 497.085C2313.7 497.588 2313.05 498.007 2312.43 498.469C2311.34 499.237 2310.26 500.015 2309.15 500.756L2305.66 502.74C2305.07 503.056 2304.5 503.417 2303.89 503.695L2302.06 504.524C2300.83 505.057 2299.63 505.665 2298.37 506.133C2295.84 507.004 2293.36 508.015 2290.78 508.632C2289.49 508.962 2288.23 509.408 2286.94 509.665L2283.08 510.497C2282.2 510.697 2282.73 511.12 2283.64 510.935C2284.9 510.676 2286.16 510.437 2287.42 510.215C2288.68 509.942 2289.92 509.594 2291.18 509.305C2293.72 508.798 2296.15 507.901 2298.65 507.168C2303.53 505.397 2308.41 503.312 2312.68 500.27C2314.99 498.812 2317.01 496.965 2319.07 495.175C2320.09 494.269 2320.98 493.224 2321.93 492.244C2322.86 491.246 2323.8 490.263 2324.6 489.152L2327.08 485.897C2327.86 484.783 2328.54 483.601 2329.27 482.454L2330.34 480.722C2330.7 480.145 2330.97 479.519 2331.28 478.919L2333.11 475.291C2333.69 474.004 2334.17 472.674 2334.71 471.366L2335.48 469.396C2335.72 468.732 2335.9 468.049 2336.1 467.376L2337.29 463.317C2337.59 461.942 2337.84 460.553 2338.11 459.168L2338.49 457.086C2338.59 456.387 2338.64 455.681 2338.71 454.977L2339.07 450.742L2339.02 446.486C2339 445.776 2339.01 445.063 2338.95 444.356L2338.71 442.236C2338.21 436.561 2336.57 431.038 2334.45 425.788L2332.7 421.909C2332.06 420.645 2331.32 419.43 2330.63 418.193L2329.57 416.355L2328.36 414.609C2327.54 413.456 2326.77 412.261 2325.89 411.154C2324.08 408.98 2322.31 406.757 2320.21 404.833C2318.26 402.768 2315.98 401.054 2313.78 399.262C2312.64 398.414 2311.43 397.663 2310.26 396.869L2308.47 395.699C2307.85 395.35 2307.22 395.022 2306.6 394.686C2305.34 394.024 2304.08 393.343 2302.81 392.715L2298.86 391.098C2298.19 390.845 2297.55 390.541 2296.87 390.332L2294.83 389.718C2293.47 389.324 2292.11 388.879 2290.74 388.544L2286.55 387.725C2285.85 387.606 2285.16 387.426 2284.45 387.364L2282.32 387.157C2276.65 386.458 2270.87 386.843 2265.22 387.781L2261.04 388.676C2259.65 388.989 2258.31 389.489 2256.94 389.898L2254.9 390.553C2254.23 390.782 2253.58 391.09 2252.92 391.357C2251.6 391.915 2250.28 392.468 2248.98 393.054C2246.48 394.432 2243.88 395.676 2241.56 397.366L2239.78 398.574C2239.18 398.972 2238.6 399.381 2238.05 399.852L2234.74 402.598C2234.17 403.043 2233.68 403.561 2233.17 404.071L2231.66 405.612L2230.17 407.169C2229.66 407.682 2229.25 408.277 2228.79 408.832L2226.15 412.241C2225.36 413.443 2224.6 414.666 2223.84 415.886C2223.47 416.501 2223.07 417.099 2222.73 417.729L2221.77 419.657C2221.15 420.949 2220.47 422.214 2219.93 423.533C2218.94 426.215 2217.8 428.841 2217.16 431.614L2216.54 433.9L2216.24 435.045C2216.16 435.427 2216.11 435.821 2216.04 436.208Z" fill="url(#paint11_linear_52_4)" fill-opacity="0.64"/>
<path fill-rule="evenodd" clip-rule="evenodd" d="M1796.8 162.535C1797.43 162.109 1798.1 161.73 1798.81 161.419C1799.54 161.129 1800.31 160.929 1801.1 160.89C1801.2 160.884 1801.21 161.232 1801.11 161.245C1800.36 161.32 1799.61 161.435 1798.89 161.66C1798.18 161.903 1797.5 162.236 1796.93 162.726C1796.06 163.493 1795.57 164.526 1795.22 165.521C1795.84 164.5 1796.72 163.656 1797.76 163.07C1798.81 162.485 1799.98 162.177 1801.18 162.177C1802.25 162.177 1803.3 162.421 1804.26 162.889C1805.21 163.358 1806.05 164.039 1806.71 164.88C1807.36 165.721 1807.81 166.701 1808.03 167.744C1808.25 168.787 1808.23 169.866 1807.96 170.899C1807.7 171.932 1807.21 172.891 1806.52 173.704C1805.83 174.517 1804.96 175.162 1803.99 175.589C1803.01 176.017 1801.95 176.216 1800.89 176.171C1799.82 176.126 1798.78 175.839 1797.84 175.331C1798.26 175.703 1798.73 176.019 1799.26 176.213C1800.59 176.698 1802.06 176.793 1803.53 176.541C1805.03 176.26 1806.33 175.381 1807.53 174.359C1808.13 173.833 1808.58 173.144 1808.92 172.413C1809.25 171.67 1809.47 170.888 1809.68 170.087C1809.7 169.995 1809.97 170.022 1809.96 170.123C1809.81 170.955 1809.68 171.789 1809.43 172.621C1809.17 173.439 1808.8 174.252 1808.24 174.919C1807.12 176.227 1805.73 177.445 1804 177.915C1802.31 178.357 1800.53 178.301 1798.87 177.753C1797.24 177.226 1795.82 176.217 1794.75 174.955C1793.68 173.715 1792.9 172.175 1792.68 170.535C1792.44 168.889 1792.91 167.26 1793.55 165.82C1794.23 164.337 1795.57 163.366 1796.8 162.535ZM1809.9 167.692C1809.72 167.067 1809.78 166.39 1809.78 165.644C1809.78 164.913 1809.68 164.12 1809.26 163.524C1808.91 163.023 1808.31 162.677 1807.76 162.366C1807.2 162.05 1806.69 161.763 1806.38 161.204C1806.27 161.027 1807.16 160.004 1807.32 160.168C1808.27 161.19 1809.08 162.343 1809.71 163.592C1810.36 164.868 1810.36 166.281 1810.61 167.551C1810.61 167.579 1809.91 167.716 1809.9 167.691L1809.9 167.692ZM1816.22 164.99C1817.07 168.1 1816.71 171.346 1815.58 174.26C1814.49 177.164 1812.7 179.913 1810.07 181.627C1807.44 183.347 1804.23 183.853 1801.32 183.709C1799.85 183.637 1798.4 183.353 1797.02 182.867C1795.65 182.371 1794.37 181.669 1793.22 180.785C1790.96 179.011 1789.54 176.502 1788.65 173.952C1788.18 172.671 1788 171.299 1788 169.969C1787.99 168.637 1788.19 167.323 1788.51 166.037C1788.82 164.732 1789.2 163.417 1789.79 162.166C1790.37 160.919 1791.16 159.715 1792.24 158.809C1794.37 156.971 1797.1 155.916 1799.88 155.551C1799.96 155.543 1800.01 155.985 1799.93 155.991C1797.93 156.229 1795.67 156.427 1793.92 157.681C1792.18 158.928 1791.11 160.791 1790.2 162.545C1789.27 164.349 1789.28 166.424 1789.23 168.25C1789.13 170.707 1789.69 173.238 1790.97 175.354C1791.6 176.412 1792.21 177.511 1793.02 178.528C1793.83 179.54 1794.82 180.488 1796.04 181.076C1797.26 181.658 1798.58 181.996 1799.92 182.144C1801.26 182.274 1802.6 182.217 1803.95 182.039C1805.31 181.851 1806.61 181.308 1807.79 180.609C1808.97 179.913 1810.02 179.034 1811.04 178.113C1812.05 177.198 1813.04 176.19 1813.84 174.982C1814.63 173.786 1815.27 172.402 1815.47 170.932C1815.9 168.017 1815.26 164.971 1813.91 162.32C1812.65 159.867 1810.69 157.845 1808.27 156.509C1807.23 155.941 1805.98 155.711 1804.8 155.594C1803.6 155.449 1802.48 155.418 1801.37 155.024C1801 154.898 1801.22 153.916 1801.62 154.006C1803.14 154.331 1804.64 154.671 1806.12 155.136C1807.6 155.596 1809.05 156.238 1810.31 157.14C1811.65 158.09 1812.89 159.193 1813.92 160.507C1814.95 161.82 1815.77 163.343 1816.22 164.99Z" fill="white" fill-opacity="0.32"/>
<path fill-rule="evenodd" clip-rule="evenodd" d="M2370.22 213.535C2370.85 213.109 2371.51 212.73 2372.23 212.419C2372.95 212.129 2373.73 211.929 2374.52 211.891C2374.62 211.884 2374.62 212.231 2374.53 212.245C2373.77 212.32 2373.03 212.435 2372.31 212.66C2371.6 212.903 2370.91 213.236 2370.35 213.726C2369.47 214.493 2368.99 215.526 2368.64 216.521C2369.26 215.5 2370.14 214.656 2371.18 214.07C2372.22 213.485 2373.4 213.177 2374.6 213.177C2375.66 213.177 2376.72 213.421 2377.67 213.889C2378.63 214.358 2379.47 215.039 2380.12 215.88C2380.78 216.721 2381.23 217.701 2381.45 218.744C2381.67 219.787 2381.64 220.866 2381.38 221.899C2381.12 222.932 2380.62 223.891 2379.94 224.704C2379.25 225.517 2378.38 226.162 2377.4 226.589C2376.43 227.017 2375.37 227.216 2374.3 227.171C2373.24 227.126 2372.2 226.839 2371.26 226.331C2371.67 226.703 2372.15 227.019 2372.68 227.213C2374.01 227.698 2375.48 227.793 2376.95 227.541C2378.44 227.26 2379.74 226.381 2380.94 225.359C2381.55 224.834 2382 224.145 2382.34 223.414C2382.67 222.671 2382.89 221.889 2383.1 221.088C2383.12 220.995 2383.39 221.022 2383.37 221.123C2383.22 221.955 2383.09 222.789 2382.85 223.621C2382.59 224.44 2382.22 225.253 2381.65 225.92C2380.54 227.228 2379.15 228.446 2377.42 228.916C2375.73 229.358 2373.95 229.301 2372.29 228.753C2370.66 228.226 2369.24 227.217 2368.17 225.955C2367.09 224.715 2366.31 223.175 2366.1 221.535C2365.86 219.889 2366.33 218.26 2366.97 216.82C2367.64 215.337 2368.98 214.366 2370.22 213.535ZM2383.32 218.692C2383.14 218.067 2383.2 217.39 2383.2 216.644C2383.19 215.913 2383.1 215.12 2382.68 214.524C2382.32 214.023 2381.73 213.677 2381.17 213.366C2380.61 213.05 2380.11 212.763 2379.8 212.204C2379.69 212.027 2380.57 211.004 2380.73 211.168C2381.75 212.248 2382.5 213.378 2383.13 214.592C2383.78 215.868 2383.78 217.281 2384.03 218.551C2384.03 218.579 2383.32 218.716 2383.32 218.692ZM2389.64 215.99C2390.49 219.1 2390.12 222.346 2389 225.26C2387.91 228.164 2386.12 230.913 2383.49 232.627C2380.86 234.347 2377.65 234.853 2374.74 234.709C2373.27 234.637 2371.82 234.353 2370.43 233.867C2369.07 233.371 2367.79 232.669 2366.63 231.785C2364.37 230.011 2362.95 227.502 2362.07 224.952C2361.6 223.671 2361.41 222.299 2361.42 220.969C2361.41 219.637 2361.61 218.323 2361.92 217.037C2362.24 215.732 2362.61 214.417 2363.2 213.166C2363.79 211.919 2364.58 210.715 2365.66 209.809C2367.79 207.971 2370.52 206.916 2373.3 206.551C2373.37 206.543 2373.42 206.985 2373.35 206.991C2371.35 207.229 2369.09 207.427 2367.34 208.681C2365.59 209.928 2364.52 211.791 2363.62 213.545C2362.68 215.349 2362.7 217.424 2362.64 219.25C2362.54 221.707 2363.11 224.238 2364.39 226.354C2365.02 227.412 2365.63 228.511 2366.44 229.528C2367.24 230.54 2368.24 231.488 2369.46 232.076C2370.67 232.658 2372 232.996 2373.34 233.144C2374.67 233.274 2376.01 233.217 2377.37 233.039C2378.73 232.851 2380.03 232.308 2381.2 231.609C2382.39 230.913 2383.43 230.034 2384.45 229.113C2385.46 228.198 2386.46 227.19 2387.26 225.982C2388.05 224.786 2388.69 223.402 2388.89 221.932C2389.32 219.017 2388.68 215.971 2387.33 213.32C2386.06 210.867 2384.1 208.845 2381.69 207.509C2380.65 206.941 2379.4 206.711 2378.21 206.594C2377.02 206.449 2375.89 206.418 2374.78 206.024C2374.42 205.898 2374.64 204.916 2375.04 205.006C2376.56 205.331 2378.06 205.671 2379.54 206.136C2381.02 206.596 2382.47 207.238 2383.73 208.14C2385.06 209.09 2386.3 210.193 2387.34 211.507C2388.37 212.82 2389.19 214.343 2389.64 215.99Z" fill="white" fill-opacity="0.48"/>
<path fill-rule="evenodd" clip-rule="evenodd" d="M1913.66 404.044C1914.06 403.774 1914.48 403.533 1914.93 403.335C1915.39 403.151 1915.88 403.025 1916.38 403C1916.45 402.996 1916.45 403.217 1916.39 403.225C1915.91 403.273 1915.44 403.346 1914.98 403.488C1914.53 403.643 1914.1 403.854 1913.74 404.166C1913.18 404.653 1912.87 405.309 1912.65 405.941C1913.05 405.293 1913.6 404.757 1914.27 404.385C1914.93 404.013 1915.67 403.817 1916.43 403.817C1918.89 403.817 1920.87 405.807 1920.87 408.263C1920.87 409.033 1920.67 409.789 1920.29 410.458C1919.91 411.127 1919.37 411.686 1918.71 412.08C1918.04 412.474 1917.29 412.69 1916.52 412.706C1915.75 412.722 1914.99 412.537 1914.32 412.171C1914.58 412.408 1914.88 412.608 1915.22 412.731C1916.06 413.04 1916.99 413.1 1917.93 412.94C1918.87 412.761 1919.7 412.204 1920.46 411.554C1920.84 411.221 1921.13 410.783 1921.34 410.319C1921.55 409.847 1921.69 409.35 1921.82 408.841C1921.84 408.782 1922.01 408.799 1922 408.864C1921.9 409.392 1921.82 409.922 1921.67 410.45C1921.5 410.97 1921.27 411.487 1920.91 411.91C1920.2 412.741 1919.32 413.515 1918.22 413.813C1917.15 414.094 1916.02 414.058 1914.97 413.71C1913.95 413.371 1913.04 412.756 1912.35 411.933C1911.67 411.145 1911.18 410.167 1911.04 409.125C1910.89 408.08 1911.19 407.045 1911.6 406.131C1912.02 405.189 1912.87 404.572 1913.66 404.044ZM1922.5 406.998C1922.37 406.584 1922.41 406.135 1922.42 405.641C1922.41 405.156 1922.35 404.631 1922.05 404.236C1921.79 403.904 1921.37 403.675 1920.98 403.468C1920.58 403.259 1920.23 403.068 1920.01 402.698C1919.93 402.581 1920.55 401.903 1920.67 402.012C1921.34 402.683 1921.91 403.447 1922.36 404.281C1922.83 405.127 1922.82 406.063 1923 406.905C1923 406.923 1922.5 407.014 1922.5 406.998ZM1926.69 405.393C1927.25 407.485 1927.01 409.668 1926.27 411.629C1925.54 413.582 1924.36 415.431 1922.62 416.584C1920.88 417.742 1918.75 418.081 1916.82 417.984C1915.85 417.935 1914.89 417.744 1913.97 417.418C1913.07 417.084 1912.22 416.611 1911.45 416.018C1909.96 414.824 1909.02 413.136 1908.43 411.421C1908.12 410.559 1908 409.636 1908 408.741C1907.99 407.846 1908.13 406.961 1908.34 406.097C1908.54 405.219 1908.79 404.335 1909.18 403.493C1909.57 402.654 1910.09 401.844 1910.81 401.235C1912.22 399.998 1914.03 399.289 1915.87 399.043C1915.92 399.038 1915.95 399.335 1915.9 399.34C1914.58 399.5 1913.08 399.632 1911.92 400.476C1910.77 401.315 1910.06 402.569 1909.46 403.748C1908.84 404.961 1908.85 406.358 1908.81 407.585C1908.75 409.238 1909.12 410.941 1909.97 412.365C1910.38 413.075 1910.79 413.815 1911.33 414.499C1911.86 415.18 1912.52 415.818 1913.32 416.213C1914.13 416.605 1915.01 416.833 1915.89 416.932C1916.78 417.02 1917.67 416.981 1918.56 416.861C1919.46 416.735 1920.32 416.369 1921.1 415.9C1921.89 415.43 1922.58 414.84 1923.26 414.22C1923.92 413.605 1924.58 412.927 1925.11 412.114C1925.64 411.309 1926.06 410.378 1926.19 409.39C1926.48 407.429 1926.05 405.38 1925.16 403.597C1924.33 401.953 1923.03 400.592 1921.42 399.687C1920.73 399.306 1919.91 399.151 1919.12 399.072C1918.33 398.975 1917.59 398.954 1916.85 398.689C1916.61 398.604 1916.76 397.943 1917.02 398.004C1918.03 398.223 1919.02 398.451 1920 398.764C1920.98 399.074 1921.94 399.505 1922.78 400.112C1923.66 400.752 1924.48 401.493 1925.17 402.377C1925.85 403.26 1926.39 404.285 1926.69 405.393Z" fill="white"/>
<path fill-rule="evenodd" clip-rule="evenodd" d="M1637.58 357.724C1637.72 358.413 1637.8 359.115 1637.81 359.836C1637.79 360.554 1637.68 361.285 1637.43 361.969C1637.4 362.059 1637.1 361.936 1637.13 361.85C1637.33 361.183 1637.5 360.508 1637.57 359.816C1637.62 359.125 1637.59 358.422 1637.37 357.767C1637.04 356.744 1636.33 355.958 1635.61 355.302C1636.26 356.2 1636.66 357.249 1636.78 358.347C1636.9 359.445 1636.74 360.556 1636.31 361.573C1635.98 362.354 1635.49 363.062 1634.89 363.656C1634.28 364.251 1633.56 364.72 1632.78 365.038C1631.99 365.355 1631.15 365.514 1630.3 365.506C1629.45 365.498 1628.61 365.323 1627.83 364.991C1626.8 364.554 1625.9 363.856 1625.22 362.967C1624.54 362.078 1624.11 361.028 1623.95 359.919C1623.8 358.81 1623.94 357.68 1624.36 356.641C1624.77 355.602 1625.45 354.688 1626.32 353.99C1625.85 354.202 1625.42 354.504 1625.06 354.878C1624.17 355.828 1623.56 357.044 1623.24 358.386C1622.94 359.756 1623.22 361.176 1623.66 362.566C1623.89 363.268 1624.31 363.897 1624.81 364.454C1625.32 365.002 1625.91 365.469 1626.52 365.934C1626.59 365.987 1626.47 366.208 1626.39 366.157C1625.73 365.73 1625.07 365.318 1624.45 364.809C1623.85 364.291 1623.29 363.685 1622.93 362.964C1622.22 361.544 1621.68 359.926 1621.91 358.288C1622.14 356.693 1622.83 355.199 1623.89 353.988C1624.93 352.794 1626.3 351.951 1627.76 351.498C1629.2 351.034 1630.79 350.928 1632.27 351.334C1633.75 351.724 1634.97 352.715 1635.96 353.78C1636.98 354.886 1637.32 356.376 1637.58 357.724ZM1628.26 367.357C1628.86 367.427 1629.42 367.727 1630.05 367.999C1630.68 368.257 1631.39 368.466 1632.06 368.315C1632.61 368.188 1633.13 367.793 1633.6 367.427C1634.08 367.056 1634.51 366.722 1635.1 366.652C1635.29 366.622 1635.84 367.76 1635.64 367.84C1634.42 368.299 1633.13 368.583 1631.83 368.681C1630.5 368.785 1629.3 368.269 1628.12 368.026C1628.09 368.02 1628.24 367.354 1628.26 367.356V367.357ZM1628.76 373.448C1625.75 373.039 1623.07 371.53 1620.95 369.483C1618.84 367.467 1617.11 364.907 1616.6 361.996C1616.07 359.088 1616.81 356.12 1618.01 353.652C1618.61 352.407 1619.39 351.255 1620.32 350.232C1621.25 349.232 1622.33 348.38 1623.52 347.706C1625.89 346.402 1628.59 346.094 1631.13 346.266C1632.41 346.332 1633.67 346.676 1634.82 347.168C1635.98 347.648 1637.04 348.308 1638.04 349.055C1639.06 349.805 1640.06 350.615 1640.93 351.588C1641.79 352.554 1642.54 353.68 1642.93 354.948C1643.74 357.472 1643.65 360.225 1642.95 362.765C1642.93 362.835 1642.53 362.714 1642.55 362.647C1643.08 360.827 1643.74 358.799 1643.29 356.817C1642.85 354.848 1641.63 353.234 1640.44 351.807C1639.22 350.332 1637.42 349.582 1635.86 348.863C1633.76 347.872 1631.36 347.429 1629.06 347.758C1627.91 347.914 1626.73 348.038 1625.55 348.37C1624.38 348.694 1623.19 349.209 1622.23 350.046C1621.28 350.884 1620.5 351.91 1619.88 353.014C1619.28 354.124 1618.83 355.306 1618.49 356.546C1618.15 357.79 1618.15 359.116 1618.32 360.392C1618.49 361.676 1618.86 362.906 1619.29 364.127C1619.71 365.338 1620.22 366.572 1620.97 367.707C1621.72 368.836 1622.68 369.896 1623.88 370.609C1626.25 372.054 1629.13 372.622 1631.92 372.429C1634.51 372.237 1636.99 371.28 1639.03 369.68C1639.91 368.988 1640.57 367.993 1641.1 367.007C1641.67 366.026 1642.11 365.062 1642.86 364.245C1643.1 363.979 1643.87 364.528 1643.65 364.841C1642.81 366.037 1641.96 367.211 1641.01 368.324C1640.07 369.435 1638.98 370.459 1637.73 371.217C1636.42 372.023 1635.01 372.69 1633.49 373.105C1631.97 373.512 1630.35 373.662 1628.76 373.448Z" fill="#6380FF"/>
<path fill-rule="evenodd" clip-rule="evenodd" d="M1953.11 546.256C1953.2 546.762 1953.25 547.279 1953.25 547.81C1953.24 548.347 1953.14 548.879 1952.96 549.385C1952.94 549.451 1952.72 549.364 1952.74 549.3C1952.9 548.806 1953.03 548.308 1953.08 547.797C1953.12 547.287 1953.11 546.77 1952.96 546.29C1952.73 545.54 1952.23 544.967 1951.72 544.49C1952.17 545.16 1952.45 545.934 1952.53 546.741C1952.61 547.547 1952.48 548.36 1952.16 549.104C1951.13 551.536 1948.39 552.7 1946.04 551.703C1943.69 550.706 1942.62 547.926 1943.65 545.493C1943.96 544.761 1944.44 544.116 1945.06 543.612C1944.71 543.774 1944.4 544 1944.14 544.278C1943.49 544.987 1943.04 545.888 1942.8 546.88C1942.58 547.892 1942.76 548.936 1943.06 549.955C1943.22 550.47 1943.52 550.93 1943.87 551.335C1944.23 551.734 1944.65 552.073 1945.08 552.409C1945.13 552.448 1945.04 552.612 1944.99 552.575C1944.52 552.266 1944.05 551.97 1943.61 551.6C1943.18 551.224 1942.79 550.783 1942.53 550.256C1942.04 549.216 1941.67 548.029 1941.84 546.82C1942.03 545.642 1942.54 544.538 1943.31 543.634C1944.06 542.766 1945.03 542.12 1946.11 541.764C1947.15 541.407 1948.3 541.314 1949.35 541.599C1950.41 541.873 1951.28 542.591 1951.98 543.366C1952.7 544.171 1952.94 545.266 1953.11 546.256ZM1946.32 553.441C1946.75 553.488 1947.15 553.703 1947.6 553.897C1948.05 554.081 1948.56 554.228 1949.04 554.111C1949.44 554.012 1949.82 553.716 1950.16 553.441C1950.5 553.164 1950.81 552.914 1951.24 552.857C1951.38 552.833 1951.76 553.667 1951.62 553.727C1950.74 554.076 1949.82 554.297 1948.87 554.383C1947.92 554.473 1947.06 554.103 1946.21 553.935C1946.2 553.931 1946.31 553.439 1946.32 553.441ZM1946.62 557.924C1944.46 557.651 1942.55 556.565 1941.05 555.077C1939.55 553.612 1938.34 551.742 1937.99 549.603C1937.64 547.465 1938.21 545.271 1939.09 543.442C1939.53 542.52 1940.1 541.665 1940.78 540.901C1941.46 540.158 1942.24 539.521 1943.11 539.01C1944.82 538.026 1946.76 537.774 1948.58 537.876C1949.5 537.913 1950.4 538.154 1951.22 538.506C1952.05 538.848 1952.81 539.325 1953.52 539.865C1954.24 540.407 1954.95 540.995 1955.57 541.704C1956.18 542.407 1956.71 543.23 1956.98 544.159C1957.54 546.012 1957.45 548.041 1956.92 549.919C1956.9 549.97 1956.61 549.885 1956.63 549.836C1957.03 548.489 1957.52 546.989 1957.22 545.534C1956.92 544.087 1956.06 542.91 1955.22 541.869C1954.36 540.795 1953.07 540.259 1951.95 539.745C1950.46 539.034 1948.74 538.731 1947.08 538.995C1946.26 539.121 1945.41 539.223 1944.56 539.479C1943.71 539.729 1942.85 540.119 1942.16 540.745C1941.47 541.372 1940.89 542.135 1940.44 542.955C1940 543.786 1939.65 544.663 1939.41 545.57C1939.15 546.49 1939.13 547.466 1939.25 548.404C1939.35 549.349 1939.61 550.252 1939.91 551.147C1940.2 552.035 1940.55 552.94 1941.08 553.768C1941.61 554.593 1942.29 555.365 1943.15 555.878C1944.84 556.92 1946.89 557.312 1948.9 557.143C1950.76 556.982 1952.55 556.247 1954.04 555.05C1954.67 554.532 1955.15 553.793 1955.55 553.061C1955.97 552.333 1956.29 551.618 1956.84 551.01C1957.01 550.811 1957.56 551.208 1957.4 551.441C1956.78 552.331 1956.16 553.204 1955.47 554.032C1954.79 554.86 1953.99 555.625 1953.09 556.195C1952.14 556.801 1951.12 557.306 1950.02 557.626C1948.93 557.94 1947.76 558.066 1946.62 557.924Z" fill="white"/>
<path opacity="0.803" fill-rule="evenodd" clip-rule="evenodd" d="M1936.17 160.854C1936.5 160.629 1936.85 160.435 1937.22 160.274C1937.59 160.124 1937.99 160.02 1938.4 160C1938.46 159.996 1938.46 160.177 1938.41 160.184C1938.02 160.223 1937.63 160.284 1937.26 160.4C1936.89 160.526 1936.53 160.699 1936.24 160.954C1935.79 161.352 1935.53 161.89 1935.35 162.406C1935.67 161.875 1936.13 161.437 1936.67 161.132C1937.21 160.828 1937.82 160.668 1938.45 160.668C1938.92 160.668 1939.4 160.763 1939.84 160.946C1940.28 161.129 1940.68 161.397 1941.02 161.735C1941.35 162.072 1941.62 162.473 1941.8 162.915C1941.99 163.356 1942.08 163.829 1942.08 164.306C1942.08 164.936 1941.92 165.555 1941.61 166.103C1941.29 166.65 1940.85 167.108 1940.31 167.43C1939.76 167.753 1939.15 167.929 1938.52 167.942C1937.89 167.955 1937.27 167.804 1936.71 167.504C1936.93 167.697 1937.18 167.861 1937.45 167.962C1938.14 168.214 1938.9 168.264 1939.67 168.132C1940.44 167.987 1941.12 167.53 1941.74 166.999C1942.05 166.726 1942.29 166.368 1942.46 165.989C1942.64 165.602 1942.75 165.196 1942.86 164.779C1942.87 164.731 1943.01 164.745 1943 164.798C1942.92 165.23 1942.86 165.663 1942.73 166.096C1942.59 166.521 1942.4 166.944 1942.11 167.29C1941.53 167.97 1940.81 168.603 1939.91 168.847C1939.02 169.079 1938.09 169.044 1937.25 168.763C1936.41 168.486 1935.67 167.983 1935.11 167.309C1934.55 166.664 1934.15 165.864 1934.03 165.012C1933.91 164.156 1934.15 163.31 1934.49 162.562C1934.84 161.791 1935.53 161.286 1936.17 160.854ZM1942.66 162.999C1942.58 162.667 1942.61 162.309 1942.61 161.913C1942.61 161.525 1942.56 161.105 1942.36 160.789C1942.2 160.523 1941.91 160.339 1941.65 160.175C1941.39 160.007 1941.15 159.855 1941 159.559C1940.95 159.465 1941.37 158.922 1941.45 159.009C1941.9 159.561 1942.28 160.171 1942.58 160.825C1942.88 161.501 1942.88 162.25 1943 162.924C1943 162.939 1942.67 163.011 1942.66 162.999ZM1946.76 161.914C1947.2 163.588 1947.01 165.334 1946.42 166.904C1945.85 168.465 1944.92 169.944 1943.54 170.867C1942.17 171.793 1940.49 172.065 1938.97 171.987C1938.2 171.948 1937.44 171.795 1936.72 171.534C1936 171.266 1935.33 170.888 1934.73 170.414C1933.55 169.459 1932.8 168.109 1932.34 166.737C1932.1 166.047 1932 165.309 1932 164.593C1931.99 163.877 1932.1 163.17 1932.27 162.477C1932.43 161.775 1932.63 161.068 1932.94 160.394C1933.24 159.724 1933.65 159.075 1934.22 158.588C1935.33 157.598 1936.76 157.031 1938.21 156.835C1938.25 156.83 1938.28 157.068 1938.24 157.072C1937.19 157.199 1936.01 157.306 1935.1 157.981C1934.18 158.651 1933.62 159.655 1933.15 160.598C1932.66 161.569 1932.67 162.686 1932.64 163.668C1932.59 164.991 1932.88 166.353 1933.55 167.491C1933.88 168.061 1934.2 168.652 1934.63 169.199C1935.05 169.744 1935.57 170.254 1936.2 170.571C1936.84 170.884 1937.53 171.066 1938.23 171.145C1938.93 171.215 1939.63 171.185 1940.34 171.089C1941.05 170.988 1941.73 170.695 1942.34 170.319C1942.97 169.945 1943.51 169.472 1944.04 168.976C1944.57 168.484 1945.09 167.941 1945.51 167.291C1945.93 166.648 1946.26 165.903 1946.36 165.112C1946.59 163.543 1946.25 161.904 1945.55 160.477C1944.9 159.166 1943.87 158.078 1942.6 157.35C1942.05 157.044 1941.4 156.92 1940.78 156.858C1940.16 156.78 1939.57 156.763 1938.99 156.551C1938.8 156.483 1938.91 155.955 1939.12 156.003C1939.92 156.178 1940.7 156.361 1941.47 156.611C1942.25 156.859 1943.01 157.204 1943.67 157.69C1944.38 158.201 1945.01 158.811 1945.55 159.502C1946.11 160.221 1946.52 161.04 1946.76 161.914Z" fill="white"/>
<path fill-rule="evenodd" clip-rule="evenodd" d="M1881.24 428.785L1880.9 424.075C1880.74 422.511 1880.4 420.966 1880.14 419.418C1879.99 418.646 1879.87 417.869 1879.69 417.106L1879.05 414.836L1878.4 412.574L1878.08 411.446L1877.66 410.347L1875.93 405.977C1874.55 403.173 1873.23 400.333 1871.49 397.735C1868.19 392.44 1864.46 387.328 1859.85 382.986C1859.27 382.442 1858.75 381.841 1858.13 381.348L1856.3 379.839C1855.06 378.847 1853.85 377.807 1852.48 376.99C1851.14 376.138 1849.81 375.261 1848.42 374.498C1846.99 373.798 1845.55 373.128 1844.09 372.498C1843.33 372.169 1843.41 372.368 1844.18 372.735C1845.45 373.345 1846.71 373.981 1847.95 374.636C1849.19 375.292 1850.32 376.137 1851.49 376.902L1853.21 378.092C1853.79 378.482 1854.29 378.968 1854.83 379.405L1857.98 382.117C1858.97 383.094 1859.91 384.1 1860.87 385.09C1861.34 385.59 1861.83 386.073 1862.29 386.586L1863.59 388.186C1864.44 389.261 1865.35 390.286 1866.17 391.386L1868.55 394.737C1871.58 399.233 1874.27 404.024 1876.07 409.185C1877.12 411.711 1877.71 414.388 1878.41 417.025C1878.72 418.351 1878.88 419.71 1879.1 421.055C1879.3 422.401 1879.54 423.745 1879.55 425.108L1879.73 429.321C1879.75 430.724 1879.6 432.127 1879.53 433.527L1879.39 435.627C1879.35 436.327 1879.19 437.017 1879.09 437.71L1878.38 441.86C1878.06 443.223 1877.67 444.572 1877.3 445.925L1876.73 447.948L1875.99 449.914C1875.48 451.218 1875.02 452.546 1874.45 453.821L1872.6 457.586C1869.92 462.477 1866.9 467.257 1863.04 471.353C1862.57 471.875 1862.12 472.417 1861.63 472.921L1860.1 474.372C1859.07 475.318 1858.09 476.338 1856.98 477.203L1853.62 479.761C1853.07 480.201 1852.48 480.578 1851.87 480.936L1850.07 482.028C1847.71 483.563 1845.07 484.603 1842.54 485.779C1841.22 486.253 1839.88 486.696 1838.56 487.14C1837.89 487.351 1837.23 487.602 1836.56 487.773L1834.51 488.246C1829.09 489.657 1823.48 489.979 1817.95 489.973L1813.79 489.747L1812.75 489.688C1812.41 489.652 1812.06 489.591 1811.72 489.543L1809.66 489.235C1806.89 488.92 1804.2 488.158 1801.5 487.472C1800.16 487.109 1798.87 486.57 1797.55 486.117L1795.59 485.399C1794.94 485.139 1794.32 484.817 1793.69 484.526C1792.43 483.922 1791.17 483.336 1789.93 482.696L1786.37 480.526C1781.74 477.456 1777.36 473.94 1773.73 469.72L1772.32 468.178L1771.05 466.519C1770.23 465.401 1769.35 464.319 1768.58 463.159C1767.12 460.789 1765.59 458.451 1764.47 455.891C1763.16 453.418 1762.33 450.739 1761.41 448.107C1761.01 446.771 1760.73 445.4 1760.4 444.048L1759.93 442.013L1759.64 439.945C1759.46 438.566 1759.26 437.189 1759.12 435.811L1758.97 431.661C1758.95 430.969 1758.9 430.278 1758.92 429.588L1759.02 427.518C1759.11 426.139 1759.14 424.756 1759.27 423.382C1759.91 417.264 1761.4 411.264 1763.68 405.552L1765.59 401.335C1766.3 399.969 1767.1 398.646 1767.86 397.305C1768.59 395.935 1769.55 394.717 1770.44 393.451L1771.81 391.571C1772.27 390.948 1772.81 390.393 1773.31 389.803C1774.2 388.811 1775.08 387.809 1775.99 386.837L1778.95 384.119C1779.45 383.679 1779.93 383.199 1780.46 382.79L1782.06 381.57C1783.13 380.774 1784.17 379.912 1785.28 379.174C1787.55 377.756 1789.74 376.214 1792.12 375.03C1793.3 374.42 1794.43 373.702 1795.63 373.16L1799.2 371.481C1800.02 371.088 1799.4 370.796 1798.56 371.181C1797.39 371.716 1796.22 372.232 1795.03 372.733C1793.87 373.283 1792.74 373.901 1791.58 374.465C1789.22 375.53 1787.05 376.951 1784.78 378.228C1780.43 381.05 1776.13 384.181 1772.66 388.105C1770.74 390.045 1769.19 392.299 1767.58 394.506C1766.8 395.618 1766.16 396.837 1765.46 398.006C1764.78 399.187 1764.08 400.357 1763.55 401.62L1761.87 405.348C1761.36 406.609 1760.96 407.915 1760.51 409.196L1759.85 411.126C1759.63 411.767 1759.51 412.438 1759.34 413.093L1758.38 417.039C1758.1 418.424 1757.93 419.829 1757.7 421.223L1757.39 423.317C1757.31 424.017 1757.29 424.722 1757.24 425.425L1757 429.646C1757.01 431.054 1757.09 432.463 1757.13 433.873L1757.22 435.989C1757.29 436.691 1757.4 437.39 1757.49 438.092L1758.09 442.299L1759.1 446.436C1759.28 447.123 1759.43 447.82 1759.64 448.496L1760.35 450.507C1762.12 455.923 1764.96 460.937 1768.2 465.575L1770.78 468.96C1771.69 470.048 1772.68 471.067 1773.63 472.116L1775.08 473.668L1776.65 475.098C1777.71 476.036 1778.73 477.028 1779.83 477.909C1782.1 479.619 1784.32 481.387 1786.79 482.79C1789.16 484.363 1791.76 485.521 1794.31 486.772C1795.61 487.342 1796.96 487.802 1798.29 488.31L1800.29 489.05C1800.97 489.25 1801.66 489.427 1802.34 489.614C1803.72 489.976 1805.09 490.358 1806.48 490.684L1810.69 491.369C1811.39 491.467 1812.09 491.617 1812.8 491.669L1814.93 491.809C1816.34 491.885 1817.76 492.014 1819.18 492.031L1823.44 491.888C1824.15 491.846 1824.86 491.866 1825.57 491.768L1827.69 491.49C1833.37 490.895 1838.91 489.22 1844.21 487.035L1848.08 485.222C1849.37 484.604 1850.56 483.816 1851.8 483.109L1853.64 482.012C1854.25 481.637 1854.81 481.192 1855.39 480.783C1856.55 479.943 1857.71 479.107 1858.85 478.243C1860.98 476.338 1863.23 474.543 1865.11 472.373L1866.57 470.796C1867.06 470.274 1867.54 469.743 1867.97 469.162L1870.58 465.74C1871.03 465.18 1871.4 464.563 1871.78 463.952L1872.9 462.112L1874.01 460.258C1874.38 459.645 1874.65 458.972 1874.97 458.329L1876.78 454.412C1877.28 453.063 1877.74 451.702 1878.21 450.342C1878.43 449.659 1878.68 448.987 1878.87 448.296L1879.38 446.202C1879.69 444.803 1880.06 443.418 1880.3 442.01C1880.66 439.174 1881.18 436.36 1881.18 433.513L1881.27 431.147L1881.3 429.965C1881.3 429.572 1881.26 429.178 1881.24 428.785" fill="url(#paint12_linear_52_4)"/>
<path fill-rule="evenodd" clip-rule="evenodd" d="M1565.89 295.779C1563.36 295.691 1560.61 295.697 1557.71 295.501C1550.51 295.1 1542.4 294.222 1534.05 292.895C1568.17 293.277 1602.48 286.718 1634.72 272.97" fill="url(#paint13_linear_52_4)"/>
<path d="M578.435 511.797C604.278 511.797 665.375 567.014 665.375 592.96C665.375 618.907 644.425 639.94 618.583 639.94C592.743 639.94 557.583 618.907 557.583 592.96C557.583 567.014 592.743 545.98 618.583 545.98M675.307 711C660 622.706 802.947 605 735.205 571.763C667.463 538.526 670.245 499.06 618.583 499C566.9 499 525 541.068 525 592.96C525 644.851 690.614 799.294 675.307 711Z" fill="url(#paint14_linear_52_4)"/>
<mask id="mask2_52_4" style="mask-type:luminance" maskUnits="userSpaceOnUse" x="525" y="499" width="229" height="239">
<path d="M578.435 511.797C604.278 511.797 665.375 567.014 665.375 592.96C665.375 618.907 644.425 639.94 618.583 639.94C592.743 639.94 557.583 618.907 557.583 592.96C557.583 567.014 592.743 545.98 618.583 545.98M675.307 711C660 622.706 802.947 605 735.205 571.763C667.463 538.526 670.245 499.06 618.583 499C566.9 499 525 541.068 525 592.96C525 644.851 690.614 799.294 675.307 711Z" fill="white"/>
</mask>
<g mask="url(#mask2_52_4)">
<path fill-rule="evenodd" clip-rule="evenodd" d="M787.95 559.554L764.494 606.779C758.242 581.705 729.328 552.68 704.152 558.957C678.976 565.234 667.072 604.437 673.324 629.51C679.576 654.585 705.054 669.824 730.229 663.547C755.405 657.27 794.201 584.629 787.949 559.554H787.95ZM618.098 701.74C536.129 737.952 645.918 539.895 696.268 527.341C746.62 514.787 797.574 545.265 810.078 595.413C822.518 645.555 783.55 652.403 767.689 726.174C751.829 799.945 700.066 665.527 618.098 701.74Z" fill="url(#paint15_linear_52_4)"/>
</g>
<path fill-rule="evenodd" clip-rule="evenodd" d="M685.239 594.785L684.896 590.074C684.741 588.511 684.396 586.966 684.137 585.418C683.989 584.646 683.871 583.869 683.691 583.106L683.055 580.836L682.405 578.574L682.076 577.446L681.656 576.347L679.933 571.977C678.551 569.173 677.232 566.333 675.494 563.735C672.188 558.44 668.457 553.328 663.847 548.986C663.275 548.442 662.749 547.841 662.131 547.348L660.297 545.839C659.06 544.847 657.85 543.807 656.485 542.99C655.145 542.138 653.813 541.261 652.42 540.498C650.992 539.798 649.547 539.128 648.09 538.497C647.33 538.169 647.407 538.367 648.176 538.735C649.45 539.345 650.708 539.981 651.949 540.636C653.19 541.292 654.322 542.137 655.489 542.902L657.211 544.091C657.786 544.481 658.294 544.968 658.834 545.405L661.985 548.117C662.966 549.094 663.915 550.1 664.87 551.09C665.342 551.59 665.83 552.073 666.285 552.586L667.588 554.186C668.442 555.261 669.35 556.285 670.165 557.385L672.549 560.737C675.578 565.233 678.274 570.024 680.072 575.185C681.125 577.711 681.708 580.388 682.411 583.024C682.725 584.351 682.876 585.71 683.1 587.054C683.304 588.401 683.537 589.745 683.554 591.108L683.732 595.321C683.749 596.724 683.602 598.127 683.531 599.527L683.388 601.627C683.351 602.327 683.187 603.016 683.09 603.71L682.385 607.859C682.061 609.223 681.668 610.572 681.303 611.925L680.733 613.948L679.991 615.914C679.479 617.218 679.025 618.546 678.452 619.821L676.596 623.586C673.921 628.477 670.897 633.257 667.04 637.353C666.571 637.875 666.121 638.417 665.633 638.921L664.104 640.372C663.066 641.318 662.088 642.338 660.979 643.203L657.623 645.761C657.071 646.2 656.479 646.578 655.873 646.936L654.068 648.028C651.707 649.563 649.075 650.603 646.536 651.779C645.216 652.253 643.883 652.696 642.555 653.14C641.888 653.351 641.234 653.602 640.556 653.773L638.511 654.246C633.088 655.657 627.482 655.979 621.948 655.973L617.791 655.747L616.752 655.688C616.407 655.652 616.064 655.591 615.719 655.543L613.657 655.235C610.886 654.92 608.202 654.158 605.502 653.472C604.157 653.109 602.867 652.57 601.55 652.117L599.587 651.399C598.94 651.139 598.322 650.817 597.689 650.526C596.434 649.922 595.168 649.336 593.933 648.695L590.366 646.525C585.741 643.455 581.361 639.94 577.726 635.72L576.322 634.178L575.055 632.519C574.228 631.401 573.347 630.319 572.58 629.159C571.119 626.789 569.593 624.451 568.468 621.891C567.161 619.418 566.328 616.739 565.409 614.107C565.01 612.771 564.729 611.4 564.397 610.048L563.927 608.013L563.64 605.945C563.462 604.566 563.264 603.189 563.116 601.811L562.965 597.66C562.95 596.969 562.895 596.278 562.915 595.588L563.024 593.517C563.11 592.139 563.139 590.756 563.268 589.382C563.914 583.264 565.4 577.263 567.684 571.551L569.589 567.335C570.299 565.969 571.098 564.646 571.865 563.304C572.595 561.935 573.551 560.717 574.442 559.451L575.808 557.571C576.268 556.948 576.812 556.393 577.315 555.803C578.197 554.811 579.079 553.809 579.994 552.837L582.949 550.119C583.453 549.678 583.925 549.198 584.457 548.79L586.056 547.57C587.135 546.774 588.168 545.912 589.283 545.174C591.553 543.756 593.744 542.213 596.124 541.03C597.301 540.419 598.428 539.702 599.63 539.16L603.204 537.481C604.02 537.088 603.402 536.796 602.563 537.18C601.393 537.716 600.218 538.232 599.034 538.733C597.873 539.282 596.739 539.901 595.579 540.465C593.221 541.53 591.05 542.951 588.778 544.228C584.427 547.05 580.135 550.181 576.663 554.105C574.743 556.044 573.186 558.299 571.585 560.506C570.796 561.618 570.163 562.837 569.46 564.005C568.776 565.187 568.076 566.357 567.548 567.62L565.867 571.348C565.358 572.609 564.958 573.915 564.506 575.196L563.852 577.125C563.635 577.767 563.512 578.438 563.34 579.093L562.378 583.039C562.099 584.424 561.928 585.828 561.703 587.223L561.388 589.317C561.307 590.017 561.291 590.722 561.24 591.425L561 595.646C561.012 597.054 561.086 598.463 561.135 599.873L561.225 601.989C561.29 602.691 561.403 603.39 561.492 604.092L562.092 608.299L563.096 612.436C563.277 613.123 563.426 613.82 563.641 614.496L564.353 616.507C566.124 621.923 568.959 626.936 572.205 631.575L574.785 634.96C575.693 636.048 576.683 637.067 577.635 638.116L579.084 639.668L580.654 641.098C581.714 642.036 582.728 643.028 583.834 643.909C586.096 645.618 588.319 647.387 590.793 648.79C593.161 650.363 595.762 651.521 598.312 652.772C599.611 653.342 600.96 653.801 602.286 654.31L604.288 655.049C604.968 655.25 605.658 655.427 606.343 655.614C607.718 655.976 609.092 656.358 610.476 656.683L614.689 657.369C615.393 657.467 616.093 657.617 616.801 657.668L618.926 657.808C620.343 657.885 621.76 658.014 623.178 658.031L627.439 657.888C628.148 657.846 628.863 657.866 629.568 657.767L631.688 657.49C637.37 656.895 642.914 655.22 648.209 653.035L652.082 651.222C653.367 650.604 654.56 649.816 655.801 649.109L657.641 648.012C658.249 647.637 658.808 647.192 659.393 646.783C660.55 645.943 661.711 645.107 662.85 644.243C664.977 642.338 667.227 640.542 669.109 638.373L670.57 636.796C671.062 636.274 671.544 635.743 671.966 635.162L674.578 631.74C675.029 631.18 675.398 630.563 675.776 629.952L676.901 628.111L678.006 626.258C678.381 625.645 678.648 624.972 678.97 624.329L680.782 620.412C681.278 619.063 681.742 617.701 682.207 616.342C682.43 615.659 682.684 614.987 682.874 614.296L683.376 612.202C683.69 610.803 684.064 609.418 684.303 608.01C684.661 605.174 685.179 602.36 685.184 599.513L685.267 597.147L685.3 595.965C685.3 595.572 685.259 595.178 685.239 594.785Z" fill="url(#paint16_linear_52_4)"/>
</g>
<defs>
<linearGradient id="paint0_linear_52_4" x1="35740.2" y1="33560.3" x2="9228.92" y2="4441.63" gradientUnits="userSpaceOnUse">
<stop stop-color="#6380FF" stop-opacity="0.64"/>
<stop offset="1" stop-color="#6380FF" stop-opacity="0"/>
</linearGradient>
<linearGradient id="paint1_linear_52_4" x1="16254.7" y1="25882.1" x2="6904.91" y2="4528.76" gradientUnits="userSpaceOnUse">
<stop stop-color="#6380FF" stop-opacity="0.64"/>
<stop offset="1" stop-color="#3525D3"/>
</linearGradient>
<linearGradient id="paint2_linear_52_4" x1="23625.9" y1="500.169" x2="8496.07" y2="-11290.8" gradientUnits="userSpaceOnUse">
<stop stop-color="#6380FF" stop-opacity="0.780392"/>
<stop offset="1" stop-color="#6380FF" stop-opacity="0"/>
</linearGradient>
<linearGradient id="paint3_linear_52_4" x1="31614.5" y1="59966.9" x2="8871.53" y2="11947.8" gradientUnits="userSpaceOnUse">
<stop stop-color="#8F00FF"/>
<stop offset="1" stop-color="#3525D3"/>
</linearGradient>
<linearGradient id="paint4_linear_52_4" x1="4172.41" y1="32662.2" x2="39437.6" y2="15218.1" gradientUnits="userSpaceOnUse">
<stop stop-color="#6380FF"/>
<stop offset="1" stop-color="#6380FF" stop-opacity="0"/>
</linearGradient>
<linearGradient id="paint5_linear_52_4" x1="38719.3" y1="12190.6" x2="3117.96" y2="32863.4" gradientUnits="userSpaceOnUse">
<stop stop-color="#9755FB"/>
<stop offset="1" stop-color="#9755FB" stop-opacity="0.48"/>
</linearGradient>
<linearGradient id="paint6_linear_52_4" x1="-31715.4" y1="-30476.6" x2="-18728" y2="7241.4" gradientUnits="userSpaceOnUse">
<stop stop-color="#9755FB"/>
<stop offset="1" stop-color="#4500FA" stop-opacity="0.8"/>
</linearGradient>
<linearGradient id="paint7_linear_52_4" x1="1617.97" y1="-4141.11" x2="6316.62" y2="-5054.44" gradientUnits="userSpaceOnUse">
<stop stop-color="#5288FF"/>
<stop offset="1" stop-color="#4500FA" stop-opacity="0.35"/>
</linearGradient>
<linearGradient id="paint8_linear_52_4" x1="3766.59" y1="-4881.08" x2="9483.34" y2="-2800.36" gradientUnits="userSpaceOnUse">
<stop stop-color="#4500FA"/>
<stop offset="1" stop-color="#4500FA" stop-opacity="0.24"/>
</linearGradient>
<linearGradient id="paint9_linear_52_4" x1="8314.12" y1="137" x2="8314.12" y2="6220.63" gradientUnits="userSpaceOnUse">
<stop stop-color="#4500FA"/>
<stop offset="1" stop-color="#4500FA" stop-opacity="0.24"/>
</linearGradient>
<linearGradient id="paint10_linear_52_4" x1="15101.2" y1="-122" x2="19666" y2="26597" gradientUnits="userSpaceOnUse">
<stop stop-color="white"/>
<stop offset="1" stop-color="#55FBDC" stop-opacity="0.32"/>
</linearGradient>
<linearGradient id="paint11_linear_52_4" x1="-3731.62" y1="-877.611" x2="-2971.72" y2="-12753.2" gradientUnits="userSpaceOnUse">
<stop stop-color="#6380FF"/>
<stop offset="1" stop-color="#9755FB" stop-opacity="0.32"/>
</linearGradient>
<linearGradient id="paint12_linear_52_4" x1="7972" y1="371" x2="9903" y2="12113.1" gradientUnits="userSpaceOnUse">
<stop stop-color="white"/>
<stop offset="1" stop-color="white" stop-opacity="0.32"/>
</linearGradient>
<linearGradient id="paint13_linear_52_4" x1="-1892.36" y1="3129.14" x2="-4904.6" y2="-590.669" gradientUnits="userSpaceOnUse">
<stop stop-color="#5288FF"/>
<stop offset="1" stop-color="#4500FA" stop-opacity="0.35"/>
</linearGradient>
<linearGradient id="paint14_linear_52_4" x1="11951.8" y1="499" x2="11951.8" y2="24371" gradientUnits="userSpaceOnUse">
<stop stop-color="#695CFE"/>
<stop offset="1" stop-color="#9755FB"/>
</linearGradient>
<linearGradient id="paint15_linear_52_4" x1="22974.3" y1="9390.4" x2="584.661" y2="15399.2" gradientUnits="userSpaceOnUse">
<stop stop-color="white" stop-opacity="0.64"/>
<stop offset="1" stop-color="white" stop-opacity="0"/>
</linearGradient>
<linearGradient id="paint16_linear_52_4" x1="6776" y1="537" x2="8707.01" y2="12279.1" gradientUnits="userSpaceOnUse">
<stop stop-color="#9755FB"/>
<stop offset="1" stop-color="#9755FB" stop-opacity="0.48"/>
</linearGradient>
<clipPath id="clip0_52_4">
<rect width="2596" height="738" fill="white"/>
</clipPath>
</defs>
</svg>
