<svg width="532" height="146" viewBox="0 0 532 146" fill="none" xmlns="http://www.w3.org/2000/svg">
<path d="M120.314 28.3483C120.314 19.2476 112.518 11.2906 102.448 12.2457C69.6584 15.3647 39.2797 30.1846 17.3154 53.7766C10.5387 61.0341 12.6477 71.8076 20.349 77.1671L23.028 79.0346L25.327 75.7496L25.3777 75.6827C45.581 48.8735 78.451 31.4265 115.564 31.4265H120.314V28.3483ZM33.117 80.9691L30.723 84.3941L55.7207 101.823L57 102.735V115.522C57 117.136 57.6673 118.683 58.855 119.824C60.0428 120.965 61.6537 121.606 63.3334 121.606C65.0131 121.606 66.624 120.965 67.8117 119.824C68.9994 118.683 69.6667 117.136 69.6667 115.522V115.157C69.768 114.392 70.1686 113.692 70.7873 113.199C71.4059 112.707 72.1964 112.458 72.9985 112.505C73.8006 112.551 74.5544 112.889 75.107 113.449C75.6596 114.009 75.9698 114.751 75.9747 115.522V124.654C75.9745 126.214 76.5989 127.716 77.7187 128.847C78.8385 129.978 80.3681 130.652 81.991 130.73C83.6139 130.808 85.206 130.284 86.4379 129.266C87.6699 128.249 88.4474 126.815 88.6097 125.262L97.7297 131.589C107.16 138.122 120.34 131.655 120.333 120.48L120.314 40.5454H115.564C81.6557 40.5454 51.623 56.4655 33.117 80.9691ZM94.9747 66.8558C93.295 66.8558 91.6841 66.2149 90.4964 65.074C89.3086 63.9332 88.6414 62.3859 88.6414 60.7725C88.6414 59.1591 89.3086 57.6118 90.4964 56.4709C91.6841 55.3301 93.295 54.6891 94.9747 54.6891C96.6544 54.6891 98.2653 55.3301 99.453 56.4709C100.641 57.6118 101.308 59.1591 101.308 60.7725C101.308 62.3859 100.641 63.9332 99.453 65.074C98.2653 66.2149 96.6544 66.8558 94.9747 66.8558ZM69.6414 85.0936C67.9617 85.0936 66.3508 84.4527 65.163 83.3119C63.9753 82.171 63.308 80.6237 63.308 79.0103C63.308 77.3969 63.9753 75.8496 65.163 74.7087C66.3508 73.5679 67.9617 72.927 69.6414 72.927C71.3211 72.927 72.932 73.5679 74.1197 74.7087C75.3074 75.8496 75.9747 77.3969 75.9747 79.0103C75.9747 80.6237 75.3074 82.171 74.1197 83.3119C72.932 84.4527 71.3211 85.0936 69.6414 85.0936ZM94.9747 103.331C93.295 103.331 91.6841 102.691 90.4964 101.55C89.3086 100.409 88.6414 98.8615 88.6414 97.2481C88.6414 95.6347 89.3086 94.0874 90.4964 92.9466C91.6841 91.8057 93.295 91.1648 94.9747 91.1648C96.6544 91.1648 98.2653 91.8057 99.453 92.9466C100.641 94.0874 101.308 95.6347 101.308 97.2481C101.308 98.8615 100.641 100.409 99.453 101.55C98.2653 102.691 96.6544 103.331 94.9747 103.331Z" fill="white"/>
<path d="M144.793 131V87.3636H162.009C165.318 87.3636 168.138 87.9957 170.467 89.2599C172.797 90.5099 174.572 92.25 175.794 94.4801C177.03 96.696 177.648 99.2528 177.648 102.151C177.648 105.048 177.023 107.605 175.773 109.821C174.523 112.037 172.712 113.763 170.339 114.999C167.982 116.234 165.126 116.852 161.774 116.852H150.801V109.459H160.283C162.058 109.459 163.521 109.153 164.672 108.543C165.837 107.918 166.703 107.058 167.271 105.964C167.854 104.857 168.145 103.585 168.145 102.151C168.145 100.702 167.854 99.4375 167.271 98.358C166.703 97.2642 165.837 96.419 164.672 95.8224C163.507 95.2116 162.03 94.9062 160.24 94.9062H154.018V131H144.793ZM183.47 131V98.2727H192.547V131H183.47ZM188.029 94.054C186.68 94.054 185.522 93.6065 184.556 92.7116C183.605 91.8026 183.129 90.7159 183.129 89.4517C183.129 88.2017 183.605 87.1293 184.556 86.2344C185.522 85.3253 186.68 84.8707 188.029 84.8707C189.379 84.8707 190.529 85.3253 191.481 86.2344C192.447 87.1293 192.93 88.2017 192.93 89.4517C192.93 90.7159 192.447 91.8026 191.481 92.7116C190.529 93.6065 189.379 94.054 188.029 94.054ZM199.647 131V125.588L215.67 105.751V105.517H200.201V98.2727H226.6V104.175L211.558 123.521V123.756H227.154V131H199.647ZM233.924 131V125.588L249.947 105.751V105.517H234.478V98.2727H260.877V104.175L245.835 123.521V123.756H261.431V131H233.924ZM277.705 131.618C275.616 131.618 273.756 131.256 272.122 130.531C270.489 129.793 269.196 128.706 268.244 127.271C267.307 125.822 266.838 124.018 266.838 121.859C266.838 120.041 267.172 118.514 267.839 117.278C268.507 116.043 269.416 115.048 270.567 114.295C271.717 113.543 273.024 112.974 274.487 112.591C275.964 112.207 277.513 111.938 279.132 111.781C281.036 111.582 282.57 111.398 283.734 111.227C284.899 111.043 285.744 110.773 286.27 110.418C286.795 110.062 287.058 109.537 287.058 108.841V108.713C287.058 107.364 286.632 106.32 285.78 105.581C284.942 104.842 283.749 104.473 282.2 104.473C280.567 104.473 279.267 104.835 278.301 105.56C277.335 106.27 276.696 107.165 276.384 108.244L267.989 107.562C268.415 105.574 269.253 103.855 270.503 102.406C271.753 100.943 273.365 99.821 275.339 99.0398C277.328 98.2443 279.629 97.8466 282.243 97.8466C284.061 97.8466 285.801 98.0597 287.463 98.4858C289.139 98.9119 290.624 99.5724 291.916 100.467C293.223 101.362 294.253 102.513 295.006 103.919C295.759 105.311 296.135 106.98 296.135 108.926V131H287.527V126.462H287.271C286.746 127.484 286.043 128.386 285.162 129.168C284.281 129.935 283.223 130.538 281.987 130.979C280.751 131.405 279.324 131.618 277.705 131.618ZM280.304 125.354C281.639 125.354 282.818 125.091 283.841 124.565C284.864 124.026 285.666 123.301 286.249 122.392C286.831 121.483 287.122 120.453 287.122 119.303V115.83C286.838 116.014 286.447 116.185 285.95 116.341C285.467 116.483 284.92 116.618 284.31 116.746C283.699 116.859 283.088 116.966 282.477 117.065C281.866 117.151 281.312 117.229 280.815 117.3C279.75 117.456 278.82 117.705 278.024 118.045C277.229 118.386 276.611 118.848 276.17 119.43C275.73 119.999 275.51 120.709 275.51 121.561C275.51 122.797 275.957 123.741 276.852 124.395C277.761 125.034 278.912 125.354 280.304 125.354ZM327.056 131L314.571 87.3636H324.649L331.872 117.683H332.234L340.203 87.3636H348.832L356.779 117.747H357.163L364.386 87.3636H374.464L361.978 131H352.987L344.677 102.47H344.336L336.048 131H327.056ZM390.503 131.639C387.193 131.639 384.331 130.936 381.916 129.53C379.516 128.109 377.662 126.135 376.355 123.607C375.048 121.064 374.395 118.116 374.395 114.764C374.395 111.384 375.048 108.429 376.355 105.901C377.662 103.358 379.516 101.384 381.916 99.9773C384.331 98.5568 387.193 97.8466 390.503 97.8466C393.812 97.8466 396.668 98.5568 399.068 99.9773C401.483 101.384 403.344 103.358 404.651 105.901C405.957 108.429 406.611 111.384 406.611 114.764C406.611 118.116 405.957 121.064 404.651 123.607C403.344 126.135 401.483 128.109 399.068 129.53C396.668 130.936 393.812 131.639 390.503 131.639ZM390.545 124.608C392.051 124.608 393.308 124.182 394.317 123.33C395.325 122.463 396.085 121.284 396.597 119.793C397.122 118.301 397.385 116.604 397.385 114.7C397.385 112.797 397.122 111.099 396.597 109.608C396.085 108.116 395.325 106.937 394.317 106.071C393.308 105.205 392.051 104.771 390.545 104.771C389.026 104.771 387.747 105.205 386.71 106.071C385.688 106.937 384.913 108.116 384.388 109.608C383.876 111.099 383.621 112.797 383.621 114.7C383.621 116.604 383.876 118.301 384.388 119.793C384.913 121.284 385.688 122.463 386.71 123.33C387.747 124.182 389.026 124.608 390.545 124.608ZM412.513 131V98.2727H421.312V103.983H421.653C422.25 101.952 423.251 100.418 424.658 99.3807C426.064 98.3295 427.683 97.804 429.516 97.804C429.97 97.804 430.46 97.8324 430.986 97.8892C431.511 97.946 431.973 98.0241 432.371 98.1236V106.178C431.945 106.05 431.355 105.936 430.602 105.837C429.849 105.737 429.161 105.688 428.536 105.688C427.2 105.688 426.007 105.979 424.956 106.561C423.919 107.129 423.095 107.925 422.484 108.947C421.888 109.97 421.589 111.149 421.589 112.484V131H412.513ZM446.14 87.3636V131H437.064V87.3636H446.14ZM465.471 131.533C462.985 131.533 460.734 130.893 458.717 129.615C456.714 128.322 455.123 126.426 453.944 123.926C452.779 121.412 452.197 118.33 452.197 114.679C452.197 110.929 452.8 107.811 454.008 105.325C455.215 102.825 456.82 100.957 458.823 99.7216C460.84 98.4716 463.049 97.8466 465.45 97.8466C467.282 97.8466 468.809 98.1591 470.031 98.7841C471.266 99.3949 472.261 100.162 473.013 101.085C473.781 101.994 474.363 102.889 474.761 103.77H475.038V87.3636H484.093V131H475.144V125.759H474.761C474.335 126.668 473.731 127.57 472.95 128.464C472.183 129.345 471.181 130.077 469.945 130.659C468.724 131.241 467.232 131.533 465.471 131.533ZM468.347 124.31C469.81 124.31 471.046 123.912 472.055 123.116C473.077 122.307 473.859 121.178 474.398 119.729C474.952 118.28 475.229 116.582 475.229 114.636C475.229 112.69 474.96 111 474.42 109.565C473.88 108.131 473.099 107.023 472.076 106.241C471.053 105.46 469.81 105.07 468.347 105.07C466.856 105.07 465.599 105.474 464.576 106.284C463.553 107.094 462.779 108.216 462.254 109.651C461.728 111.085 461.465 112.747 461.465 114.636C461.465 116.54 461.728 118.223 462.254 119.686C462.793 121.135 463.567 122.271 464.576 123.095C465.599 123.905 466.856 124.31 468.347 124.31ZM499.162 87.3636V91.9659C499.162 93.2727 498.907 94.608 498.395 95.9716C497.898 97.321 497.23 98.5994 496.392 99.8068C495.554 101 494.638 102.016 493.644 102.854L489.638 100.489C490.348 99.3665 490.973 98.1236 491.513 96.7599C492.067 95.3963 492.344 93.8125 492.344 92.0085V87.3636H499.162ZM528.337 107.605L520.027 108.116C519.885 107.406 519.58 106.767 519.111 106.199C518.642 105.616 518.024 105.155 517.257 104.814C516.504 104.459 515.602 104.281 514.551 104.281C513.145 104.281 511.959 104.58 510.993 105.176C510.027 105.759 509.544 106.54 509.544 107.52C509.544 108.301 509.857 108.962 510.482 109.501C511.107 110.041 512.179 110.474 513.699 110.801L519.622 111.994C522.804 112.648 525.176 113.699 526.739 115.148C528.301 116.597 529.082 118.5 529.082 120.858C529.082 123.003 528.45 124.885 527.186 126.504C525.936 128.124 524.217 129.388 522.03 130.297C519.857 131.192 517.349 131.639 514.509 131.639C510.176 131.639 506.724 130.737 504.153 128.933C501.597 127.115 500.098 124.643 499.658 121.518L508.585 121.05C508.855 122.371 509.509 123.379 510.545 124.075C511.582 124.757 512.911 125.098 514.53 125.098C516.121 125.098 517.399 124.793 518.365 124.182C519.345 123.557 519.842 122.754 519.857 121.774C519.842 120.95 519.494 120.276 518.812 119.75C518.131 119.21 517.08 118.798 515.659 118.514L509.991 117.385C506.795 116.746 504.416 115.638 502.854 114.061C501.305 112.484 500.531 110.474 500.531 108.031C500.531 105.929 501.099 104.118 502.236 102.598C503.386 101.078 504.999 99.9062 507.072 99.0824C509.161 98.2585 511.604 97.8466 514.402 97.8466C518.536 97.8466 521.788 98.7202 524.161 100.467C526.547 102.214 527.939 104.594 528.337 107.605Z" fill="white"/>
</svg>
