<svg width="757" height="219" viewBox="0 0 757 219" fill="none" xmlns="http://www.w3.org/2000/svg">
<path d="M173.348 42.5226C173.348 28.8716 162.115 16.9361 147.606 18.3687C100.363 23.0472 56.5937 45.277 24.9477 80.6651C15.184 91.5512 18.2226 107.712 29.3186 115.751L33.1785 118.552L36.4909 113.625L36.5639 113.524C65.6726 73.3103 113.031 47.1398 166.504 47.1398H173.348V42.5226ZM47.7146 121.454L44.2654 126.591L80.2818 152.734L82.125 154.103V173.284C82.125 175.704 83.0864 178.025 84.7977 179.736C86.5089 181.447 88.8299 182.409 91.25 182.409C93.6701 182.409 95.9911 181.447 97.7023 179.736C99.4136 178.025 100.375 175.704 100.375 173.284V172.736C100.521 171.588 101.098 170.538 101.989 169.799C102.881 169.06 104.02 168.688 105.175 168.757C106.331 168.827 107.417 169.333 108.213 170.174C109.01 171.014 109.456 172.126 109.463 173.284V186.98C109.463 189.322 110.363 191.573 111.976 193.27C113.59 194.966 115.793 195.978 118.132 196.095C120.47 196.212 122.764 195.426 124.539 193.9C126.314 192.373 127.434 190.222 127.668 187.893L140.808 197.383C154.395 207.183 173.384 197.483 173.375 180.721L173.348 60.8182H166.504C117.649 60.8182 74.3779 84.6983 47.7146 121.454ZM136.838 100.284C134.418 100.284 132.097 99.3225 130.386 97.6112C128.675 95.8999 127.713 93.5789 127.713 91.1588C127.713 88.7387 128.675 86.4178 130.386 84.7065C132.097 82.9952 134.418 82.0338 136.838 82.0338C139.259 82.0338 141.58 82.9952 143.291 84.7065C145.002 86.4178 145.963 88.7387 145.963 91.1588C145.963 93.5789 145.002 95.8999 143.291 97.6112C141.58 99.3225 139.259 100.284 136.838 100.284ZM100.339 127.641C97.9184 127.641 95.5974 126.679 93.8861 124.968C92.1749 123.257 91.2135 120.936 91.2135 118.516C91.2135 116.095 92.1749 113.775 93.8861 112.063C95.5974 110.352 97.9184 109.391 100.339 109.391C102.759 109.391 105.08 110.352 106.791 112.063C108.502 113.775 109.463 116.095 109.463 118.516C109.463 120.936 108.502 123.257 106.791 124.968C105.08 126.679 102.759 127.641 100.339 127.641ZM136.838 154.997C134.418 154.997 132.097 154.036 130.386 152.325C128.675 150.613 127.713 148.292 127.713 145.872C127.713 143.452 128.675 141.131 130.386 139.42C132.097 137.709 134.418 136.747 136.838 136.747C139.259 136.747 141.58 137.709 143.291 139.42C145.002 141.131 145.963 143.452 145.963 145.872C145.963 148.292 145.002 150.613 143.291 152.325C141.58 154.036 139.259 154.997 136.838 154.997Z" fill="white"/>
<path d="M201.04 139V83H225.2C228.72 83 231.84 83.8 234.56 85.4C237.333 87 239.52 89.1867 241.12 91.96C242.773 94.7333 243.6 97.8533 243.6 101.32C243.6 104.947 242.773 108.2 241.12 111.08C239.52 113.907 237.333 116.147 234.56 117.8C231.84 119.453 228.72 120.28 225.2 120.28H214.64V139H201.04ZM214.4 108.36H223.28C224.453 108.36 225.52 108.067 226.48 107.48C227.44 106.893 228.213 106.093 228.8 105.08C229.387 104.067 229.68 102.893 229.68 101.56C229.68 100.173 229.387 99 228.8 98.04C228.213 97.08 227.44 96.3333 226.48 95.8C225.52 95.2667 224.453 95 223.28 95H214.4V108.36ZM253.369 139V96.52H266.169V139H253.369ZM259.769 88.12C257.369 88.12 255.475 87.56 254.089 86.44C252.755 85.2667 252.089 83.6133 252.089 81.48C252.089 79.56 252.782 77.9867 254.169 76.76C255.555 75.5333 257.422 74.92 259.769 74.92C262.169 74.92 264.035 75.5067 265.369 76.68C266.702 77.8 267.369 79.4 267.369 81.48C267.369 83.4533 266.675 85.0533 265.289 86.28C263.955 87.5067 262.115 88.12 259.769 88.12ZM276.516 139V131.64L299.076 102.68V106.92H276.516V96.52H311.716V104.2L290.356 132.28L290.036 128.6H312.436V139H276.516ZM320.5 139V131.64L343.06 102.68V106.92H320.5V96.52H355.7V104.2L334.34 132.28L334.02 128.6H356.42V139H320.5ZM381.063 139.72C377.49 139.72 374.29 138.787 371.463 136.92C368.69 135 366.476 132.387 364.823 129.08C363.17 125.72 362.343 121.933 362.343 117.72C362.343 113.4 363.17 109.587 364.823 106.28C366.476 102.973 368.743 100.387 371.623 98.52C374.503 96.6 377.783 95.64 381.463 95.64C383.49 95.64 385.33 95.9333 386.983 96.52C388.69 97.1067 390.183 97.9333 391.463 99C392.743 100.013 393.836 101.213 394.743 102.6C395.65 103.933 396.316 105.373 396.743 106.92L394.103 106.6V96.52H406.823V139H393.863V128.76L396.743 128.68C396.316 130.173 395.623 131.587 394.663 132.92C393.703 134.253 392.53 135.427 391.143 136.44C389.756 137.453 388.21 138.253 386.503 138.84C384.796 139.427 382.983 139.72 381.063 139.72ZM384.583 128.92C386.556 128.92 388.263 128.467 389.703 127.56C391.143 126.653 392.263 125.373 393.063 123.72C393.863 122.013 394.263 120.013 394.263 117.72C394.263 115.427 393.863 113.453 393.063 111.8C392.263 110.093 391.143 108.787 389.703 107.88C388.263 106.92 386.556 106.44 384.583 106.44C382.663 106.44 380.983 106.92 379.543 107.88C378.156 108.787 377.063 110.093 376.263 111.8C375.463 113.453 375.063 115.427 375.063 117.72C375.063 120.013 375.463 122.013 376.263 123.72C377.063 125.373 378.156 126.653 379.543 127.56C380.983 128.467 382.663 128.92 384.583 128.92ZM455.183 139L438.383 83H452.223L460.623 112.44C460.996 113.773 461.316 115.133 461.582 116.52C461.903 117.853 462.143 119.133 462.303 120.36C462.516 121.587 462.676 122.733 462.783 123.8C462.889 124.813 462.996 125.667 463.103 126.36H461.343C461.663 124.387 461.929 122.627 462.143 121.08C462.409 119.533 462.703 118.093 463.023 116.76C463.343 115.373 463.743 113.933 464.223 112.44L472.543 90.28H483.423L491.583 112.44C492.223 114.2 492.756 115.853 493.183 117.4C493.609 118.947 493.929 120.44 494.143 121.88C494.409 123.267 494.623 124.653 494.783 126.04L493.183 126.28C493.289 125.32 493.369 124.44 493.423 123.64C493.476 122.787 493.529 121.987 493.583 121.24C493.689 120.44 493.796 119.613 493.903 118.76C494.009 117.907 494.169 116.973 494.383 115.96C494.596 114.893 494.889 113.693 495.263 112.36L503.583 83H517.103L500.303 139H489.903L476.623 106.76L478.143 106.92L465.903 139H455.183ZM541.164 139.8C536.738 139.8 532.791 138.84 529.324 136.92C525.911 135 523.191 132.387 521.164 129.08C519.191 125.773 518.204 121.987 518.204 117.72C518.204 113.453 519.191 109.667 521.164 106.36C523.191 103.053 525.911 100.44 529.324 98.52C532.791 96.6 536.738 95.64 541.164 95.64C545.591 95.64 549.511 96.6 552.924 98.52C556.391 100.44 559.111 103.053 561.084 106.36C563.058 109.667 564.044 113.453 564.044 117.72C564.044 121.987 563.058 125.773 561.084 129.08C559.111 132.387 556.391 135 552.924 136.92C549.511 138.84 545.591 139.8 541.164 139.8ZM541.164 128.76C543.084 128.76 544.791 128.28 546.284 127.32C547.778 126.36 548.951 125.053 549.804 123.4C550.658 121.747 551.058 119.853 551.004 117.72C551.058 115.587 550.658 113.693 549.804 112.04C548.951 110.333 547.778 109 546.284 108.04C544.791 107.08 543.084 106.6 541.164 106.6C539.244 106.6 537.511 107.08 535.964 108.04C534.471 109 533.298 110.333 532.444 112.04C531.591 113.693 531.191 115.587 531.244 117.72C531.191 119.853 531.591 121.747 532.444 123.4C533.298 125.053 534.471 126.36 535.964 127.32C537.511 128.28 539.244 128.76 541.164 128.76ZM572.414 139V96.52H584.574L585.134 110.36L582.734 107.72C583.374 105.427 584.414 103.373 585.854 101.56C587.348 99.7467 589.081 98.3067 591.054 97.24C593.028 96.1733 595.134 95.64 597.374 95.64C598.334 95.64 599.214 95.72 600.014 95.88C600.868 96.04 601.641 96.2267 602.334 96.44L598.814 110.6C598.228 110.227 597.428 109.933 596.414 109.72C595.454 109.453 594.441 109.32 593.374 109.32C592.201 109.32 591.108 109.533 590.094 109.96C589.081 110.333 588.228 110.893 587.534 111.64C586.841 112.387 586.281 113.267 585.854 114.28C585.481 115.293 585.294 116.44 585.294 117.72V139H572.414ZM608.901 139V79.8H621.701V139H608.901ZM648.416 139.88C644.736 139.88 641.456 138.947 638.576 137.08C635.75 135.16 633.51 132.547 631.856 129.24C630.203 125.88 629.376 122.067 629.376 117.8C629.376 113.533 630.203 109.747 631.856 106.44C633.51 103.08 635.776 100.44 638.656 98.52C641.536 96.6 644.843 95.64 648.576 95.64C650.496 95.64 652.336 95.9333 654.096 96.52C655.856 97.1067 657.456 97.9067 658.896 98.92C660.336 99.9333 661.51 101.107 662.416 102.44C663.323 103.72 663.856 105.053 664.016 106.44L660.976 107.16V79.8H673.856V139H661.936L661.216 129.32L663.776 129.72C663.616 131.053 663.083 132.333 662.176 133.56C661.323 134.787 660.203 135.88 658.816 136.84C657.43 137.747 655.83 138.467 654.016 139C652.256 139.587 650.39 139.88 648.416 139.88ZM651.696 129.24C653.67 129.24 655.376 128.76 656.816 127.8C658.256 126.84 659.35 125.507 660.096 123.8C660.896 122.093 661.296 120.093 661.296 117.8C661.296 115.453 660.896 113.427 660.096 111.72C659.35 110.013 658.256 108.68 656.816 107.72C655.376 106.76 653.67 106.28 651.696 106.28C649.723 106.28 648.016 106.76 646.576 107.72C645.19 108.68 644.096 110.013 643.296 111.72C642.496 113.427 642.096 115.453 642.096 117.8C642.096 120.093 642.496 122.093 643.296 123.8C644.096 125.507 645.19 126.84 646.576 127.8C648.016 128.76 649.723 129.24 651.696 129.24ZM684.76 104.68L681.08 100.2C683.32 99.24 685.107 98.0667 686.44 96.68C687.827 95.24 688.52 94.04 688.52 93.08C688.52 92.4933 688.307 91.9333 687.88 91.4C687.507 90.8133 686.92 90.28 686.12 89.8C684.893 88.8933 684.04 88.0133 683.56 87.16C683.08 86.3067 682.84 85.3733 682.84 84.36C682.84 82.7067 683.427 81.4 684.6 80.44C685.827 79.48 687.4 79 689.32 79C690.92 79 692.36 79.4267 693.64 80.28C694.973 81.08 696.013 82.2533 696.76 83.8C697.507 85.2933 697.88 87.0267 697.88 89C697.88 90.7067 697.56 92.3867 696.92 94.04C696.28 95.64 695.347 97.16 694.12 98.6C692.947 99.9867 691.56 101.213 689.96 102.28C688.36 103.347 686.627 104.147 684.76 104.68ZM721.109 139.8C716.949 139.8 713.269 139.133 710.069 137.8C706.923 136.467 704.416 134.68 702.549 132.44L710.309 125.72C711.963 127.373 713.829 128.6 715.909 129.4C717.989 130.147 719.963 130.52 721.829 130.52C722.576 130.52 723.243 130.44 723.829 130.28C724.416 130.12 724.896 129.907 725.269 129.64C725.696 129.32 726.016 128.973 726.229 128.6C726.443 128.173 726.549 127.693 726.549 127.16C726.549 126.093 726.069 125.267 725.109 124.68C724.629 124.413 723.829 124.093 722.709 123.72C721.589 123.347 720.149 122.92 718.389 122.44C715.883 121.8 713.696 121.053 711.829 120.2C710.016 119.293 708.523 118.253 707.349 117.08C706.283 115.96 705.456 114.733 704.869 113.4C704.283 112.013 703.989 110.467 703.989 108.76C703.989 106.787 704.443 105 705.349 103.4C706.309 101.8 707.563 100.413 709.109 99.24C710.709 98.0667 712.523 97.1867 714.549 96.6C716.629 95.96 718.763 95.64 720.949 95.64C723.296 95.64 725.536 95.9067 727.669 96.44C729.803 96.9733 731.776 97.72 733.589 98.68C735.456 99.64 737.109 100.787 738.549 102.12L731.829 109.64C730.869 108.733 729.776 107.933 728.549 107.24C727.376 106.493 726.149 105.907 724.869 105.48C723.589 105.053 722.416 104.84 721.349 104.84C720.549 104.84 719.829 104.92 719.189 105.08C718.603 105.187 718.096 105.4 717.669 105.72C717.243 105.987 716.923 106.333 716.709 106.76C716.496 107.133 716.389 107.587 716.389 108.12C716.389 108.653 716.523 109.16 716.789 109.64C717.109 110.12 717.536 110.52 718.069 110.84C718.603 111.16 719.456 111.533 720.629 111.96C721.803 112.333 723.403 112.813 725.429 113.4C727.936 114.093 730.096 114.867 731.909 115.72C733.723 116.573 735.163 117.587 736.229 118.76C737.083 119.667 737.723 120.733 738.149 121.96C738.576 123.133 738.789 124.413 738.789 125.8C738.789 128.52 738.016 130.947 736.469 133.08C734.976 135.16 732.896 136.813 730.229 138.04C727.563 139.213 724.523 139.8 721.109 139.8Z" fill="white"/>
</svg>
