<svg width="152" height="146" viewBox="0 0 152 146" fill="none" xmlns="http://www.w3.org/2000/svg">
<path d="M120.314 28.3483C120.314 19.2476 112.518 11.2906 102.448 12.2457C69.6584 15.3647 39.2797 30.1846 17.3154 53.7766C10.5387 61.0341 12.6477 71.8076 20.349 77.1671L23.028 79.0346L25.327 75.7496L25.3777 75.6827C45.581 48.8735 78.451 31.4265 115.564 31.4265H120.314V28.3483ZM33.117 80.9691L30.723 84.3941L55.7207 101.823L57 102.735V115.522C57 117.136 57.6673 118.683 58.855 119.824C60.0428 120.965 61.6537 121.606 63.3334 121.606C65.0131 121.606 66.624 120.965 67.8117 119.824C68.9994 118.683 69.6667 117.136 69.6667 115.522V115.157C69.768 114.392 70.1686 113.692 70.7873 113.199C71.4059 112.707 72.1964 112.458 72.9985 112.505C73.8006 112.551 74.5544 112.889 75.107 113.449C75.6596 114.009 75.9698 114.751 75.9747 115.522V124.654C75.9745 126.214 76.5989 127.716 77.7187 128.847C78.8385 129.978 80.3681 130.652 81.991 130.73C83.6139 130.808 85.206 130.284 86.4379 129.266C87.6699 128.249 88.4474 126.815 88.6097 125.262L97.7297 131.589C107.16 138.122 120.34 131.655 120.333 120.48L120.314 40.5454H115.564C81.6557 40.5454 51.623 56.4655 33.117 80.9691ZM94.9747 66.8558C93.295 66.8558 91.6841 66.2149 90.4964 65.074C89.3086 63.9332 88.6414 62.3859 88.6414 60.7725C88.6414 59.1591 89.3086 57.6118 90.4964 56.4709C91.6841 55.3301 93.295 54.6891 94.9747 54.6891C96.6544 54.6891 98.2653 55.3301 99.453 56.4709C100.641 57.6118 101.308 59.1591 101.308 60.7725C101.308 62.3859 100.641 63.9332 99.453 65.074C98.2653 66.2149 96.6544 66.8558 94.9747 66.8558ZM69.6414 85.0936C67.9617 85.0936 66.3508 84.4527 65.163 83.3119C63.9753 82.171 63.308 80.6237 63.308 79.0103C63.308 77.3969 63.9753 75.8496 65.163 74.7087C66.3508 73.5679 67.9617 72.927 69.6414 72.927C71.3211 72.927 72.932 73.5679 74.1197 74.7087C75.3074 75.8496 75.9747 77.3969 75.9747 79.0103C75.9747 80.6237 75.3074 82.171 74.1197 83.3119C72.932 84.4527 71.3211 85.0936 69.6414 85.0936ZM94.9747 103.331C93.295 103.331 91.6841 102.691 90.4964 101.55C89.3086 100.409 88.6414 98.8615 88.6414 97.2481C88.6414 95.6347 89.3086 94.0874 90.4964 92.9466C91.6841 91.8057 93.295 91.1648 94.9747 91.1648C96.6544 91.1648 98.2653 91.8057 99.453 92.9466C100.641 94.0874 101.308 95.6347 101.308 97.2481C101.308 98.8615 100.641 100.409 99.453 101.55C98.2653 102.691 96.6544 103.331 94.9747 103.331Z" fill="white"/>
</svg>
