<svg width="208" height="208" viewBox="0 0 208 208" fill="none" xmlns="http://www.w3.org/2000/svg">
<path d="M104 0C62.7008 0 25.6819 16.016 0 41.6L104 208L208 41.6C182.434 16.12 145.299 0 104 0ZM46.158 52C46.158 40.56 56.5695 31.2 69.2948 31.2C82.02 31.2 92.4316 40.56 92.4316 52C92.4316 63.44 82.02 72.8 69.2948 72.8C56.5695 72.8 46.158 63.44 46.158 52ZM104 135.2C91.2747 135.2 80.8632 125.84 80.8632 114.4C80.8632 102.96 91.2747 93.6 104 93.6C116.725 93.6 127.137 102.96 127.137 114.4C127.137 125.84 116.725 135.2 104 135.2Z" fill="white"/>
</svg>
